<svg width="21" height="21" viewBox="0 0 21 21" fill="none" xmlns="http://www.w3.org/2000/svg">
<path d="M13.987 14.9971L15.1036 13.8805L11.1022 9.87911V4.90409H9.51305V10.523L13.987 14.9971ZM10.3095 20.2656C8.9174 20.2656 7.60893 20.0015 6.38407 19.4732C5.15921 18.9449 4.09379 18.2279 3.18781 17.3223C2.28183 16.4167 1.56452 15.3517 1.03587 14.1274C0.5074 12.903 0.243164 11.5949 0.243164 10.203C0.243164 8.81095 0.507312 7.50249 1.03561 6.27762C1.5639 5.05276 2.28086 3.98734 3.18649 3.08137C4.09211 2.17539 5.15709 1.45808 6.38142 0.929427C7.60575 0.400955 8.91387 0.136719 10.3058 0.136719C11.6978 0.136719 13.0063 0.400866 14.2312 0.929162C15.456 1.45746 16.5214 2.17442 17.4274 3.08004C18.3334 3.98567 19.0507 5.05064 19.5794 6.27498C20.1078 7.49931 20.3721 8.80742 20.3721 10.1993C20.3721 11.5914 20.1079 12.8999 19.5796 14.1247C19.0513 15.3496 18.3344 16.415 17.4287 17.321C16.5231 18.227 15.4581 18.9443 14.2338 19.4729C13.0095 20.0014 11.7014 20.2656 10.3095 20.2656ZM10.3076 18.6765C12.656 18.6765 14.6556 17.851 16.3066 16.2001C17.9575 14.5492 18.7829 12.5495 18.7829 10.2012C18.7829 7.8528 17.9575 5.85315 16.3066 4.20223C14.6556 2.5513 12.656 1.72584 10.3076 1.72584C7.95924 1.72584 5.9596 2.5513 4.30867 4.20223C2.65775 5.85315 1.83229 7.8528 1.83229 10.2012C1.83229 12.5495 2.65775 14.5492 4.30867 16.2001C5.9596 17.851 7.95924 18.6765 10.3076 18.6765Z" fill="#EF9F28"/>
</svg>
