<svg width="21" height="21" viewBox="0 0 21 21" fill="none" xmlns="http://www.w3.org/2000/svg">
<path d="M0.117188 20.9735V18.9735H20.1172V20.9735H0.117188ZM3.11719 14.8005V12.3005L14.3364 1.087C14.4428 0.9805 14.5591 0.902916 14.6854 0.85425C14.8118 0.805583 14.9378 0.78125 15.0634 0.78125C15.2018 0.78125 15.3319 0.805583 15.4537 0.85425C15.5755 0.902916 15.6915 0.982417 15.8017 1.09275L16.8307 2.12725C16.9409 2.23375 17.0194 2.34792 17.0662 2.46975C17.113 2.59142 17.1364 2.7215 17.1364 2.86C17.1364 2.98183 17.113 3.10592 17.0662 3.23225C17.0194 3.35842 16.9409 3.47667 16.8307 3.587L5.61719 14.8005H3.11719ZM14.6979 4.29275L16.1364 2.85425L15.0634 1.78125L13.6249 3.21975L14.6979 4.29275Z" fill="white"/>
</svg>
