<svg width="90" height="60" viewBox="0 0 90 60" fill="none" xmlns="http://www.w3.org/2000/svg">
<path d="M88.4989 31.2946L87.7165 29.2826L80.0038 10.5039L72.2911 29.3944L71.3969 31.4064H70.5027C70.6145 31.7417 70.7262 32.1888 70.9498 32.5241V32.6359C72.5147 35.9893 75.9798 38.3366 80.0038 38.3366C83.916 38.3366 87.3811 35.9893 88.946 32.7477C88.946 32.7477 88.946 32.7477 88.946 32.6359C89.1696 32.1888 89.2814 31.8535 89.3931 31.4064L88.4989 31.2946ZM71.5087 31.2946L72.4029 29.2826L79.1096 14.7515L79.7802 31.1828H71.5087V31.2946ZM80.0038 31.2946L80.6745 14.8632L87.3811 29.3944L88.2754 31.4064H80.0038V31.2946Z" fill="#282828"/>
<path d="M18.4142 31.2946L17.6318 29.2826L9.91908 10.5039L2.20641 29.3944L1.31219 31.4064H0.417969C0.529747 31.7417 0.641524 32.1888 0.86508 32.5241V32.6359C2.42997 35.9893 5.89508 38.3366 9.91908 38.3366C13.8313 38.3366 17.2964 35.9893 18.8613 32.7477C18.8613 32.7477 18.8613 32.7477 18.8613 32.6359C19.0849 32.1888 19.1966 31.8535 19.3084 31.4064L18.4142 31.2946ZM1.42397 31.2946L2.31819 29.2826L9.02486 14.7515L9.69553 31.1828H1.42397V31.2946ZM9.91908 31.2946L10.5898 14.8632L17.2964 29.3944L18.1906 31.4064H9.91908V31.2946Z" fill="#282828"/>
<path d="M50.8298 26.2642C50.1591 23.9169 49.3767 21.4578 48.3707 19.2222C48.2589 18.9987 48.1471 18.6633 48.0353 18.4398C47.2529 16.6513 46.2469 15.0864 45.0173 13.6333C42.3347 10.3918 38.7578 8.15622 34.2866 7.59733C30.2626 7.15022 26.1269 7.93267 22.1029 8.60333C17.52 9.38578 12.8253 9.38578 8.01886 9.49756C8.91308 9.83289 9.69553 10.1682 10.5898 10.3918C13.6078 11.286 16.6258 11.9567 19.7555 12.292C21.9911 12.5156 24.1149 12.4038 26.3504 12.4038C32.0511 12.4038 36.634 12.5156 40.3227 17.2102C40.7698 17.8809 41.2169 18.4398 41.664 19.1104C41.9993 19.6693 42.3347 20.34 42.67 21.0107C43.676 23.0227 44.4584 25.2582 45.0173 27.382C45.1291 27.8291 45.3527 28.388 45.4644 28.8351C46.1351 31.6296 46.694 34.424 47.0293 37.2185C47.1411 37.7773 47.1411 38.448 47.1411 39.0069C47.3647 42.5838 47.4764 45.9371 47.0293 49.514C46.694 52.8674 46.0233 56.4442 45.688 59.7976C46.694 58.3445 47.4764 56.7796 48.2589 55.2147C50.718 50.4082 52.0593 45.0429 52.3947 39.6776C52.5064 38.7833 52.3947 37.7773 52.3947 36.8831C52.2829 33.3062 51.724 29.7293 50.8298 26.2642Z" fill="#016A4D"/>
<path d="M42.8936 49.6263C42.5582 46.0494 42.5582 42.696 42.7818 39.1191C42.7818 38.5602 42.8936 37.8896 42.8936 37.3307C43.1171 35.7658 43.3407 34.2009 43.676 32.636C43.4524 31.63 43.2289 30.5122 42.8936 29.5062C42.1111 26.6 41.3287 24.1409 40.3227 22.1289C39.8756 23.4702 39.4284 24.8116 39.0931 26.1529C38.1989 29.7298 37.64 33.3067 37.4164 36.8836C37.4164 37.7778 37.3047 38.7838 37.4164 39.678C37.64 45.0434 39.0931 50.4087 41.5522 55.2151C42.1111 56.3329 42.67 57.4507 43.3407 58.4567C43.5642 58.9038 43.8996 59.3509 44.1231 59.798C44.0113 58.5685 43.7878 57.3389 43.5642 55.9976C43.4524 53.9856 43.1171 51.75 42.8936 49.6263Z" fill="#016A4D"/>
<path d="M67.82 8.60365C63.9078 8.04476 59.772 7.15054 55.748 7.59765C52.1711 8.04476 49.1531 9.49788 46.694 11.7334C47.9236 13.1865 49.0413 14.8632 50.0473 16.7634C53.736 12.4041 58.2071 12.2923 63.6842 12.2923C65.808 12.2923 68.0436 12.2923 70.2791 12.1805C73.4089 11.957 76.4269 11.2863 79.4449 10.2803C80.2273 10.0568 81.1216 9.72143 81.904 9.3861C77.2093 9.3861 72.5147 9.3861 67.82 8.60365Z" fill="#016A4D"/>
<path d="M45.0173 8.49152C47.1163 8.49152 48.8178 6.79 48.8178 4.69107C48.8178 2.59214 47.1163 0.890625 45.0173 0.890625C42.9184 0.890625 41.2169 2.59214 41.2169 4.69107C41.2169 6.79 42.9184 8.49152 45.0173 8.49152Z" fill="#F32A41"/>
</svg>
