<svg width="30" height="30" viewBox="0 0 30 30" fill="none" xmlns="http://www.w3.org/2000/svg">
<path d="M15.0957 7.51422C13.777 7.51422 12.5539 7.84868 11.4263 8.51758C10.2987 9.16737 9.40049 10.0561 8.73159 11.1836C8.06269 12.3112 7.72823 13.5439 7.72823 14.8817C7.72823 16.2004 8.05313 17.4236 8.70292 18.5511C9.37183 19.6787 10.2701 20.577 11.3976 21.2459C12.5443 21.8957 13.777 22.2206 15.0957 22.2206C16.4335 22.2206 17.6662 21.8957 18.7938 21.2459C19.9214 20.577 20.8101 19.6787 21.4599 18.5511C22.1288 17.4236 22.4632 16.2004 22.4632 14.8817C22.4632 13.5439 22.1288 12.3112 21.4599 11.1836C20.8101 10.0561 19.9214 9.16737 18.7938 8.51758C17.6662 7.84868 16.4335 7.51422 15.0957 7.51422ZM15.0957 19.4112C14.2739 19.4112 13.5095 19.2105 12.8023 18.8091C12.1143 18.3887 11.5601 17.8345 11.1396 17.1464C10.7383 16.4393 10.5376 15.6749 10.5376 14.8531C10.5376 14.0313 10.7383 13.2764 11.1396 12.5883C11.5601 11.9003 12.1143 11.3556 12.8023 10.9543C13.5095 10.5338 14.2739 10.3236 15.0957 10.3236C15.9175 10.3236 16.6724 10.5338 17.3604 10.9543C18.0676 11.3556 18.6218 11.9003 19.0232 12.5883C19.4436 13.2764 19.6538 14.0313 19.6538 14.8531C19.6538 15.6749 19.4436 16.4393 19.0232 17.1464C18.6218 17.8345 18.0676 18.3887 17.3604 18.8091C16.6724 19.2105 15.9175 19.4112 15.0957 19.4112ZM21.1159 0.691406H9.0756C7.60401 0.691406 6.23753 1.06408 4.97617 1.80943C3.73392 2.53567 2.74968 3.52947 2.02344 4.79083C1.2972 6.03308 0.934082 7.39 0.934082 8.86159V20.8732C0.934082 22.3448 1.2972 23.7017 2.02344 24.9439C2.74968 26.2053 3.73392 27.1991 4.97617 27.9253C6.23753 28.6707 7.60401 29.0434 9.0756 29.0434H21.1159C22.5875 29.0434 23.9635 28.6707 25.244 27.9253C26.4671 27.1991 27.4418 26.2244 28.168 25.0013C28.9134 23.7208 29.286 22.3448 29.286 20.8732V8.86159C29.286 7.39 28.9134 6.01397 28.168 4.7335C27.4418 3.51036 26.4671 2.53567 25.244 1.80943C23.9635 1.06408 22.5875 0.691406 21.1159 0.691406ZM26.4767 20.8732C26.4767 21.8479 26.2378 22.7461 25.76 23.5679C25.2822 24.3897 24.6324 25.0395 23.8106 25.5173C22.9888 25.9951 22.0906 26.234 21.1159 26.234H9.0756C8.10091 26.234 7.20267 25.9951 6.38087 25.5173C5.57819 25.0395 4.93795 24.3897 4.46016 23.5679C3.98237 22.7461 3.74348 21.8479 3.74348 20.8732V8.86159C3.74348 7.8869 3.98237 6.98866 4.46016 6.16686C4.93795 5.34507 5.57819 4.69527 6.38087 4.21748C7.20267 3.7397 8.10091 3.5008 9.0756 3.5008H21.1159C22.0906 3.5008 22.9888 3.7397 23.8106 4.21748C24.6324 4.69527 25.2822 5.34507 25.76 6.16686C26.2378 6.98866 26.4767 7.8869 26.4767 8.86159V20.8732ZM22.5779 5.36418C22.0428 5.36418 21.5841 5.55529 21.2019 5.93752C20.8196 6.31975 20.6285 6.77843 20.6285 7.31355C20.6285 7.84868 20.8196 8.30735 21.2019 8.68958C21.5841 9.0527 22.0428 9.23426 22.5779 9.23426C23.113 9.23426 23.5621 9.0527 23.9253 8.68958C24.3075 8.30735 24.4986 7.84868 24.4986 7.31355C24.4986 6.77843 24.3075 6.31975 23.9253 5.93752C23.5621 5.55529 23.113 5.36418 22.5779 5.36418Z" fill="#FF6157"/>
</svg>
