<svg width="26" height="26" viewBox="0 0 26 26" fill="none" xmlns="http://www.w3.org/2000/svg">
<path d="M23.9658 0.283203H2.72336C2.20735 0.283203 1.76778 0.464763 1.40466 0.827882C1.04154 1.17189 0.859985 1.59234 0.859985 2.08924V23.5897C0.859985 24.0866 1.04154 24.5071 1.40466 24.8511C1.76778 25.2142 2.20735 25.3958 2.72336 25.3958H23.9658C24.4627 25.3958 24.8927 25.2142 25.2559 24.8511C25.619 24.5071 25.8005 24.0866 25.8005 23.5897V2.08924C25.8005 1.59234 25.619 1.17189 25.2559 0.827882C24.8927 0.464763 24.4627 0.283203 23.9658 0.283203ZM8.42815 21.2963H4.67274V9.97275H8.42815V21.2963ZM6.53611 8.42472H6.50745C5.89588 8.42472 5.39898 8.24316 5.01674 7.88004C4.63451 7.49781 4.4434 7.02958 4.4434 6.47534C4.4434 5.902 4.63451 5.43376 5.01674 5.07064C5.41809 4.68841 5.9341 4.4973 6.56478 4.4973C7.19546 4.4973 7.70192 4.68841 8.08415 5.07064C8.46638 5.43376 8.65749 5.902 8.65749 6.47534C8.65749 7.02958 8.46638 7.49781 8.08415 7.88004C7.70192 8.24316 7.1859 8.42472 6.53611 8.42472ZM21.9878 21.2963H18.2324V15.2189C18.2324 14.4162 18.089 13.8046 17.8024 13.3842C17.4775 12.9064 16.9901 12.6675 16.3403 12.6675C15.8625 12.6675 15.4421 12.8108 15.079 13.0975C14.7923 13.3459 14.563 13.6613 14.391 14.0435C14.3145 14.2728 14.2763 14.5786 14.2763 14.9609V21.2963H10.5209V16.0216C10.54 12.4286 10.54 10.4123 10.5209 9.97275H14.2763V11.5781C15.0599 10.3359 16.1874 9.71475 17.659 9.71475C18.9586 9.71475 19.9906 10.1256 20.7551 10.9474C21.5769 11.8457 21.9878 13.1262 21.9878 14.7889V21.2963Z" fill="#3989E7"/>
</svg>
