<svg width="20" height="16" viewBox="0 0 20 16" fill="none" xmlns="http://www.w3.org/2000/svg">
<path d="M1.99342 15.6076C1.6192 15.6076 1.29176 15.4673 1.01109 15.1866C0.730422 14.9059 0.590088 14.5785 0.590088 14.2043V2.04201C0.590088 1.66779 0.730422 1.34034 1.01109 1.05967C1.29176 0.779005 1.6192 0.638672 1.99342 0.638672H17.8979C18.2721 0.638672 18.5996 0.779005 18.8802 1.05967C19.1609 1.34034 19.3012 1.66779 19.3012 2.04201V14.2043C19.3012 14.5785 19.1609 14.9059 18.8802 15.1866C18.5996 15.4673 18.2721 15.6076 17.8979 15.6076H1.99342ZM9.94567 8.54414L1.99342 3.3284V14.2043H17.8979V3.3284L9.94567 8.54414ZM9.94567 7.1408L17.8044 2.04201H2.11037L9.94567 7.1408ZM1.99342 3.3284V2.04201V14.2043V3.3284Z" fill="#FF8F27"/>
</svg>
