<svg width="105" height="106" viewBox="0 0 105 106" fill="none" xmlns="http://www.w3.org/2000/svg">
<path d="M39.744 75.1178L74.2028 52.9883L39.744 30.8587V75.1178ZM52.0828 105.045C44.8826 105.045 38.1148 103.679 31.7794 100.946C25.444 98.2136 19.9333 94.5053 15.2473 89.8211C10.5613 85.1369 6.85109 79.6285 4.11675 73.2958C1.38332 66.9632 0.0166016 60.1972 0.0166016 52.9979C0.0166016 45.7976 1.38286 39.0298 4.11538 32.6944C6.84789 26.359 10.5562 20.8483 15.2404 16.1623C19.9246 11.4763 25.433 7.76613 31.7657 5.03179C38.0983 2.29835 44.8643 0.931641 52.0637 0.931641C59.2639 0.931641 66.0317 2.2979 72.3671 5.03041C78.7025 7.76293 84.2132 11.4713 88.8992 16.1555C93.5852 20.8397 97.2954 26.3481 100.03 32.6807C102.763 39.0134 104.13 45.7793 104.13 52.9787C104.13 60.1789 102.764 66.9468 100.031 73.2822C97.2986 79.6175 93.5902 85.1282 88.9061 89.8142C84.2219 94.5003 78.7135 98.2104 72.3808 100.945C66.0482 103.678 59.2822 105.045 52.0828 105.045ZM52.0732 96.8255C64.3111 96.8255 74.6768 92.5787 83.1702 84.0853C91.6637 75.5918 95.9104 65.2262 95.9104 52.9883C95.9104 40.7504 91.6637 30.3847 83.1702 21.8913C74.6768 13.3978 64.3111 9.15111 52.0732 9.15111C39.8354 9.15111 29.4697 13.3978 20.9762 21.8913C12.4828 30.3847 8.23607 40.7504 8.23607 52.9883C8.23607 65.2262 12.4828 75.5918 20.9762 84.0853C29.4697 92.5787 39.8354 96.8255 52.0732 96.8255Z" fill="white" fill-opacity="0.6"/>
</svg>
