<svg width="21" height="21" viewBox="0 0 21 21" fill="none" xmlns="http://www.w3.org/2000/svg">
<path d="M11.7475 0.441406L11.7484 3.19678C15.0043 3.60319 17.5848 6.18397 17.9908 9.43999H20.7461V11.2397L17.9907 11.2406C17.5844 14.4962 15.004 17.0765 11.7484 17.4829L11.7475 20.2383H9.9478V17.483C6.69178 17.077 4.111 14.4965 3.70459 11.2406L0.949219 11.2397V9.43999H3.70448C4.11053 6.18366 6.69147 3.60272 9.9478 3.19667V0.441406H11.7475ZM10.8477 4.9407C7.86579 4.9407 5.44851 7.35798 5.44851 10.3398C5.44851 13.3217 7.86579 15.739 10.8477 15.739C13.8295 15.739 16.2468 13.3217 16.2468 10.3398C16.2468 7.35798 13.8295 4.9407 10.8477 4.9407ZM10.8477 8.54013C11.8416 8.54013 12.6474 9.34586 12.6474 10.3398C12.6474 11.3338 11.8416 12.1396 10.8477 12.1396C9.85367 12.1396 9.04794 11.3338 9.04794 10.3398C9.04794 9.34586 9.85367 8.54013 10.8477 8.54013Z" fill="#282828"/>
</svg>
