<svg width="20" height="25" viewBox="0 0 20 25" fill="none" xmlns="http://www.w3.org/2000/svg">
<path d="M10.0234 12.1092C10.6153 12.1092 11.1205 11.9 11.539 11.4815C11.9574 11.0631 12.1667 10.5579 12.1667 9.9659C12.1667 9.37394 11.9574 8.86874 11.539 8.45028C11.1205 8.03183 10.6153 7.8226 10.0234 7.8226C9.43141 7.8226 8.9262 8.03183 8.50775 8.45028C8.0893 8.86874 7.88007 9.37394 7.88007 9.9659C7.88007 10.5579 8.0893 11.0631 8.50775 11.4815C8.9262 11.9 9.43141 12.1092 10.0234 12.1092ZM10.0234 22.2439C12.7382 19.774 14.7437 17.5338 16.0399 15.5232C17.3361 13.5126 17.9842 11.7418 17.9842 10.2109C17.9842 7.80219 17.2136 5.8324 15.6725 4.30147C14.1314 2.77054 12.2483 2.00508 10.0234 2.00508C7.79842 2.00508 5.91538 2.77054 4.37425 4.30147C2.83311 5.8324 2.06255 7.80219 2.06255 10.2109C2.06255 11.7418 2.72595 13.5126 4.05275 15.5232C5.37955 17.5338 7.36976 19.774 10.0234 22.2439ZM10.0234 24.6628C6.73698 21.8663 4.28239 19.2688 2.65961 16.8704C1.03682 14.4719 0.225433 12.2521 0.225433 10.2109C0.225433 7.149 1.21033 4.70972 3.18012 2.89302C5.14992 1.07632 7.431 0.167969 10.0234 0.167969C12.6157 0.167969 14.8968 1.07632 16.8666 2.89302C18.8364 4.70972 19.8213 7.149 19.8213 10.2109C19.8213 12.2521 19.0099 14.4719 17.3871 16.8704C15.7643 19.2688 13.3098 21.8663 10.0234 24.6628Z" fill="#FF5656"/>
</svg>
