<svg width="21" height="21" viewBox="0 0 21 21" fill="none" xmlns="http://www.w3.org/2000/svg">
<path d="M14.4854 10.5664L9.98535 6.06641L8.58535 7.49141L11.6604 10.5664L8.58535 13.6414L9.98535 15.0664L14.4854 10.5664ZM20.9854 10.5664C20.9854 11.9497 20.7229 13.2497 20.1979 14.4664C19.6729 15.6831 18.9604 16.7414 18.0604 17.6414C17.1604 18.5414 16.102 19.2539 14.8854 19.7789C13.6687 20.3039 12.3687 20.5664 10.9854 20.5664C9.60202 20.5664 8.30202 20.3039 7.08535 19.7789C5.86868 19.2539 4.81035 18.5414 3.91035 17.6414C3.01035 16.7414 2.29785 15.6831 1.77285 14.4664C1.24785 13.2497 0.985351 11.9497 0.985351 10.5664C0.985351 9.18307 1.24785 7.88307 1.77285 6.66641C2.29785 5.44974 3.01035 4.39141 3.91035 3.49141C4.81035 2.59141 5.86868 1.87891 7.08535 1.35391C8.30202 0.828905 9.60202 0.566406 10.9854 0.566406C12.3687 0.566406 13.6687 0.828905 14.8854 1.35391C16.102 1.87891 17.1604 2.59141 18.0604 3.4914C18.9604 4.3914 19.6729 5.44974 20.1979 6.6664C20.7229 7.88307 20.9854 9.18307 20.9854 10.5664ZM18.9854 10.5664C18.9854 8.33307 18.2104 6.44141 16.6604 4.89141C15.1104 3.34141 13.2187 2.56641 10.9854 2.56641C8.75202 2.56641 6.86035 3.34141 5.31035 4.89141C3.76035 6.44141 2.98535 8.33307 2.98535 10.5664C2.98535 12.7997 3.76035 14.6914 5.31035 16.2414C6.86035 17.7914 8.75202 18.5664 10.9854 18.5664C13.2187 18.5664 15.1104 17.7914 16.6604 16.2414C18.2104 14.6914 18.9854 12.7997 18.9854 10.5664Z" fill="#15885F"/>
</svg>
