<svg width="30" height="30" viewBox="0 0 30 30" fill="none" xmlns="http://www.w3.org/2000/svg">
<path d="M29.5193 27.6913L22.0719 20.4682C24.0239 18.3789 25.2204 15.6158 25.2204 12.5799C25.2204 6.07598 19.7884 0.808594 13.0907 0.808594C6.38714 0.808594 0.958008 6.07598 0.958008 12.5799C0.958008 19.0781 6.38714 24.3512 13.0907 24.3512C15.9825 24.3512 18.6409 23.362 20.7255 21.7218L28.1988 28.9705C28.565 29.323 29.1531 29.323 29.5193 28.9705C29.8855 28.6151 29.8855 28.0438 29.5193 27.6913ZM13.0907 22.5376C7.41645 22.5376 2.82346 18.0775 2.82346 12.5799C2.82346 7.07942 7.41645 2.6165 13.0907 2.6165C18.7591 2.6165 23.3521 7.07942 23.3521 12.5799C23.3521 18.0775 18.7591 22.5376 13.0907 22.5376Z" fill="#585858"/>
</svg>
