<svg width="21" height="27" viewBox="0 0 21 27" fill="none" xmlns="http://www.w3.org/2000/svg">
<path d="M8.79795 17.8444L15.9261 10.7162L14.9002 9.69036L8.79795 15.7927L5.72326 12.718L4.6974 13.7438L8.79795 17.8444ZM10.3076 26.6202C7.41912 25.7631 5.01959 24.0133 3.10902 21.3709C1.19845 18.7285 0.243164 15.752 0.243164 12.4416V4.6664L10.3076 0.90625L20.3721 4.6664V12.4416C20.3721 15.752 19.4168 18.7285 17.5062 21.3709C15.5956 24.0133 13.1961 25.7631 10.3076 26.6202ZM10.3076 25.094C12.7998 24.3032 14.8606 22.7217 16.4901 20.3493C18.1196 17.977 18.9343 15.3411 18.9343 12.4416V5.64804L10.3076 2.44072L1.68094 5.64804V12.4416C1.68094 15.3411 2.49568 17.977 4.12517 20.3493C5.75465 22.7217 7.81547 24.3032 10.3076 25.094Z" fill="#00A0D2"/>
</svg>
