<svg width="19" height="23" viewBox="0 0 19 23" fill="none" xmlns="http://www.w3.org/2000/svg">
<path d="M17.8124 11.9083C17.1586 9.808 15.5919 8.67324 13.5349 8.78771C12.2977 8.85739 11.3999 9.57657 11.1334 10.7711C11.0454 11.1642 11.0303 11.5873 11.0604 11.9904C11.1812 13.6304 12.1594 14.5287 13.8191 14.5536C14.0529 14.5586 14.2843 14.5536 14.5458 14.5536C14.498 14.8398 14.4804 15.0663 14.4176 15.2828C13.8467 17.2835 12.4863 18.6398 10.7184 19.6377C10.1627 19.9537 9.54409 20.0458 8.89781 20.006C7.54994 19.9214 6.84582 19.1972 6.84331 17.8509C6.84079 16.0243 6.84331 14.2002 6.84331 12.3737V11.9133H10.3086C9.80059 11.3957 9.33537 10.9826 8.94308 10.5073C8.44768 9.90506 7.8869 9.54671 7.07466 9.71095C7.02185 9.72091 6.9615 9.70349 6.84331 9.68856V9.19832C6.83828 7.68529 6.86594 6.16978 6.82319 4.65676C6.81564 4.40791 6.79553 4.16404 6.75529 3.92514C6.62453 3.10641 6.30768 2.34741 5.7469 1.678C5.35712 1.21265 4.86424 0.90407 4.26323 0.81946C4.09726 0.797063 3.92878 0.787109 3.76532 0.787109H1.54485C1.44175 1.29975 1.39145 1.82731 1.39145 2.3723C1.39145 2.90235 1.44175 3.41997 1.54485 3.93011L3.13413 3.97988L3.39315 4.00726C3.4535 4.02468 3.6069 4.04956 3.63456 4.05952C3.6421 4.06201 3.81813 4.11924 3.94638 4.23122C4.3085 4.5398 4.52476 4.98774 4.52727 5.58249C4.52979 6.52813 4.52727 7.47875 4.52727 8.42687V9.72837H0.207031C0.885998 10.4326 1.4845 11.0722 2.11065 11.6844C2.24142 11.8138 2.47026 11.8984 2.66137 11.9083C3.26993 11.9332 3.881 11.9183 4.52979 11.9183V12.4234C4.52979 14.4317 4.55494 16.4424 4.51722 18.4506C4.50213 19.2296 4.7712 19.8492 5.25653 20.4166C6.93132 22.3726 9.00343 23.0221 11.4779 22.2257C14.5156 21.2577 16.457 19.1275 17.6339 16.2782C18.2223 14.8572 18.2701 13.3765 17.8124 11.9083Z" fill="black"/>
</svg>
