<svg width="15" height="23" viewBox="0 0 15 23" fill="none" xmlns="http://www.w3.org/2000/svg">
<path d="M14.492 11.6622C13.9673 9.56191 12.71 8.42714 11.0592 8.54162C10.0663 8.61129 9.34584 9.33048 9.13192 10.525C9.06129 10.9182 9.04918 11.3412 9.0734 11.7443C9.17027 13.3843 9.95531 14.2826 11.2873 14.3075C11.4749 14.3125 11.6606 14.3075 11.8705 14.3075C11.8321 14.5937 11.818 14.8202 11.7676 15.0367C11.3095 17.0374 10.2177 18.3937 8.79894 19.3916C8.35294 19.7076 7.85648 19.7997 7.33783 19.7599C6.25613 19.6753 5.69106 18.9511 5.68904 17.6048C5.68703 15.7782 5.68904 13.9542 5.68904 12.1276V11.6672H8.46999C8.06233 11.1496 7.68898 10.7365 7.37416 10.2612C6.97659 9.65896 6.52656 9.30062 5.87471 9.46486C5.83233 9.47481 5.7839 9.45739 5.68904 9.44246V8.95222C5.68501 7.4392 5.70721 5.92369 5.6729 4.41067C5.66685 4.16182 5.6507 3.91794 5.61841 3.67904C5.51347 2.86032 5.25919 2.10132 4.80915 1.43191C4.49635 0.966553 4.1008 0.657976 3.61848 0.573366C3.48528 0.55097 3.35007 0.541016 3.21889 0.541016H1.43691C1.35417 1.05365 1.31381 1.58122 1.31381 2.1262C1.31381 2.65626 1.35417 3.17387 1.43691 3.68402L2.71235 3.73379L2.92021 3.76116C2.96865 3.77858 3.09175 3.80347 3.11395 3.81342C3.12 3.81591 3.26127 3.87315 3.3642 3.98513C3.6548 4.29371 3.82836 4.74164 3.83038 5.3364C3.83239 6.28204 3.83038 7.23265 3.83038 8.18078V9.48228H0.363281C0.908168 10.1865 1.38848 10.8261 1.89098 11.4383C1.99592 11.5677 2.17957 11.6523 2.33295 11.6622C2.82133 11.6871 3.31172 11.6722 3.83239 11.6722V12.1773C3.83239 14.1856 3.85257 16.1963 3.8223 18.2045C3.81019 18.9835 4.02613 19.6031 4.41562 20.1705C5.75968 22.1265 7.42259 22.776 9.4084 21.9796C11.8463 21.0116 13.4042 18.8814 14.3487 16.0321C14.8209 14.6111 14.8593 13.1305 14.492 11.6622Z" fill="#1CA49D"/>
</svg>
