<svg width="18" height="23" viewBox="0 0 18 23" fill="none" xmlns="http://www.w3.org/2000/svg">
<path d="M17.6653 11.5128C17.0183 9.4125 15.4679 8.27773 13.4323 8.3922C12.208 8.46188 11.3196 9.18106 11.0558 10.3756C10.9687 10.7687 10.9538 11.1918 10.9836 11.5949C11.1031 13.2349 12.0711 14.1332 13.7135 14.1581C13.945 14.1631 14.1739 14.1581 14.4327 14.1581C14.3854 14.4443 14.368 14.6707 14.3058 14.8872C13.7409 16.888 12.3946 18.2443 10.6452 19.2422C10.0952 19.5582 9.48305 19.6503 8.8435 19.6105C7.50965 19.5259 6.81286 18.8017 6.81038 17.4554C6.80789 15.6288 6.81038 13.8047 6.81038 11.9782V11.5178H10.2396C9.73688 11.0002 9.2765 10.5871 8.88829 10.1118C8.39805 9.50955 7.84311 9.1512 7.03932 9.31544C6.98706 9.3254 6.92734 9.30798 6.81038 9.29305V8.80281C6.8054 7.28979 6.83277 5.77428 6.79047 4.26125C6.783 4.0124 6.76309 3.76853 6.72328 3.52963C6.59387 2.7109 6.28032 1.95191 5.72538 1.28249C5.33966 0.817139 4.85191 0.508562 4.25715 0.423952C4.09291 0.401556 3.92618 0.391602 3.76442 0.391602H1.56706C1.46503 0.904237 1.41526 1.4318 1.41526 1.97679C1.41526 2.50685 1.46503 3.02446 1.56706 3.53461L3.1398 3.58438L3.39612 3.61175C3.45585 3.62917 3.60765 3.65405 3.63502 3.66401C3.64249 3.6665 3.81668 3.72373 3.9436 3.83572C4.30194 4.14429 4.51596 4.59223 4.51845 5.18699C4.52093 6.13262 4.51845 7.08324 4.51845 8.03137V9.33286H0.243164C0.915065 10.0371 1.50733 10.6767 2.12698 11.2888C2.25638 11.4182 2.48283 11.5029 2.67196 11.5128C3.27418 11.5377 3.8789 11.5228 4.52093 11.5228V12.0279C4.52093 14.0362 4.54582 16.0469 4.50849 18.0551C4.49356 18.834 4.75983 19.4537 5.24012 20.0211C6.89747 21.977 8.94802 22.6266 11.3967 21.8302C14.4029 20.8622 16.324 18.732 17.4886 15.8827C18.0709 14.4617 18.1182 12.981 17.6653 11.5128Z" fill="#15885F"/>
</svg>
