<svg width="26" height="22" viewBox="0 0 26 22" fill="none" xmlns="http://www.w3.org/2000/svg">
<path d="M25.1481 3.04087C24.2499 3.44221 23.2561 3.71933 22.1667 3.87222C22.7019 3.56643 23.1605 3.16509 23.5428 2.66819C23.9441 2.17129 24.2403 1.61706 24.4315 1.00549C23.4568 1.61706 22.3674 2.03751 21.1634 2.26685C20.7047 1.75084 20.1409 1.34949 19.472 1.06282C18.8222 0.776149 18.1342 0.632812 17.408 0.632812C16.4715 0.632812 15.6115 0.871706 14.8279 1.34949C14.0443 1.80817 13.4232 2.4293 12.9645 3.21287C12.5059 3.99644 12.2765 4.85646 12.2765 5.79293C12.2765 6.25161 12.3147 6.64339 12.3912 6.96829C10.2889 6.85362 8.31088 6.3185 6.45706 5.36292C4.64146 4.42645 3.08387 3.16509 1.78429 1.57883C1.32561 2.40063 1.09627 3.26065 1.09627 4.15889C1.09627 5.03802 1.29695 5.85982 1.69829 6.62428C2.11874 7.36963 2.68253 7.9812 3.38966 8.45899C2.54875 8.43988 1.77473 8.22009 1.06761 7.79964V7.88564C1.06761 9.12789 1.44984 10.2172 2.2143 11.1537C2.99787 12.0902 3.99167 12.6826 5.1957 12.9311C4.77525 13.0458 4.31657 13.1031 3.81967 13.1031C3.47566 13.1031 3.16032 13.0744 2.87365 13.0171C3.19854 14.0491 3.80056 14.8996 4.67969 15.5685C5.55882 16.2183 6.55262 16.5527 7.66109 16.5718C6.78196 17.279 5.78816 17.8236 4.67969 18.2059C3.59033 18.5881 2.45319 18.7792 1.26828 18.7792C1.01983 18.7792 0.637597 18.7601 0.121585 18.7219H0.0355835C2.42453 20.2508 5.06192 21.0153 7.94776 21.0153C10.222 21.0153 12.3147 20.5757 14.2259 19.6966C15.9842 18.8748 17.5131 17.7281 18.8127 16.2565C20.0167 14.8805 20.9532 13.3133 21.6221 11.5551C22.2527 9.85413 22.5681 8.13409 22.5681 6.39494V5.70693C23.581 4.98069 24.441 4.092 25.1481 3.04087Z" fill="#10C6FF"/>
</svg>
