<svg width="572" height="598" viewBox="0 0 572 598" fill="none" xmlns="http://www.w3.org/2000/svg">
<path d="M363.107 0.53125H157.615V129.805H363.107V0.53125Z" fill="#6D6C6D"/>
<path d="M356.107 8.61133H165.158V121.726H356.107V8.61133Z" fill="white"/>
<path d="M185.089 40.1211L178.625 65.4373L183.742 61.3975L186.705 67.3225L193.707 41.1984L185.089 40.1211Z" fill="#507A93"/>
<path d="M187.516 42.0066L196.942 66.2455L198.827 60.0511L204.483 63.0137L195.057 37.9668L187.516 42.0066Z" fill="#507A93"/>
<path d="M207.445 46.585L204.483 48.2009L202.328 50.8941L198.827 51.7021L196.134 53.5874L192.633 53.0487L189.401 53.5874L186.169 51.9714L182.937 51.7021L180.513 49.0089L177.551 47.393L176.473 44.1611L174.05 41.7372V38.236L172.703 35.0042L173.78 31.7723V28.2712L175.935 25.578L177.012 22.3461L179.705 20.7302L181.86 18.037L185.361 17.229L188.054 15.3438L191.555 15.8824L195.057 15.3438L198.019 16.9597L201.251 17.4983L203.675 19.9222L206.637 21.5381L207.984 24.77L210.139 27.1939V30.6951L211.485 33.9269L210.408 37.1588V40.6599L208.523 43.3532L207.445 46.585Z" fill="#F6852F"/>
<path d="M209.058 34.4653C209.058 43.8915 201.517 51.4325 192.091 51.4325C182.665 51.4325 175.124 43.8915 175.124 34.4653C175.124 25.039 182.665 17.498 192.091 17.498C201.517 17.498 209.058 25.039 209.058 34.4653Z" fill="#B57B93"/>
<path opacity="0.15" d="M199.903 19.3828C198.825 23.4226 195.055 26.1158 191.823 28.8091C186.975 32.5796 180.781 36.6194 176.741 41.7365C177.28 43.0831 178.088 44.1604 178.896 45.2376C180.242 43.3524 182.128 42.0058 184.282 41.4671C191.823 39.3126 202.057 40.9285 208.79 36.8887C208.79 36.0807 209.06 35.5421 209.06 34.7341C209.06 27.7318 205.289 22.076 199.903 19.3828Z" fill="white"/>
<path d="M206.098 34.1961C206.098 42.0064 199.903 48.2008 192.093 48.2008C184.283 48.2008 178.088 42.0064 178.088 34.1961C178.088 26.3858 184.283 20.1914 192.093 20.1914C199.903 20.1914 206.098 26.6551 206.098 34.1961Z" stroke="#FFF7EA" stroke-miterlimit="10"/>
<path d="M230.332 27.1934H336.714" stroke="#6D6C6D" stroke-miterlimit="10" stroke-linecap="round" stroke-linejoin="round"/>
<path d="M230.332 48.2012H336.714" stroke="#6D6C6D" stroke-miterlimit="10" stroke-linecap="round" stroke-linejoin="round"/>
<path d="M178.624 74.5938H336.715" stroke="#6D6C6D" stroke-miterlimit="10" stroke-linecap="round" stroke-linejoin="round"/>
<path d="M178.624 88.3301H336.715" stroke="#6D6C6D" stroke-miterlimit="10" stroke-linecap="round" stroke-linejoin="round"/>
<path d="M178.624 101.797H336.715" stroke="#6D6C6D" stroke-miterlimit="10" stroke-linecap="round" stroke-linejoin="round"/>
<path d="M230.332 37.9668H336.714" stroke="#6D6C6D" stroke-miterlimit="10" stroke-linecap="round" stroke-linejoin="round"/>
<path d="M383.307 70.0161C386.58 70.0161 389.232 67.3634 389.232 64.0911C389.232 60.8188 386.58 58.166 383.307 58.166C380.035 58.166 377.382 60.8188 377.382 64.0911C377.382 67.3634 380.035 70.0161 383.307 70.0161Z" fill="white"/>
<path d="M406.736 64.0911C406.736 67.3229 404.043 70.0161 400.811 70.0161C397.579 70.0161 394.886 67.3229 394.886 64.0911C394.886 60.8592 397.579 58.166 400.811 58.166C404.043 58.4353 406.736 60.8592 406.736 64.0911Z" fill="white"/>
<path d="M418.319 70.0161C421.591 70.0161 424.244 67.3634 424.244 64.0911C424.244 60.8188 421.591 58.166 418.319 58.166C415.046 58.166 412.394 60.8188 412.394 64.0911C412.394 67.3634 415.046 70.0161 418.319 70.0161Z" fill="white"/>
<path d="M285.812 597.347C443.479 597.347 571.293 564.549 571.293 524.091C571.293 483.633 443.479 450.836 285.812 450.836C128.146 450.836 0.332031 483.633 0.332031 524.091C0.332031 564.549 128.146 597.347 285.812 597.347Z" fill="#8AC6F1"/>
<path d="M237.871 493.12L240.295 523.015C240.295 523.015 254.569 530.287 273.152 516.282L270.728 489.619L237.871 493.12Z" fill="#D3C9B6"/>
<path d="M370.917 262.85V455.145C370.917 458.915 367.685 461.878 363.645 461.878C359.605 461.878 356.373 458.915 356.373 455.145V262.85H370.917Z" fill="#C1A887"/>
<path d="M251.341 262.85V455.145C251.341 458.915 248.109 461.878 244.069 461.878C240.029 461.878 236.797 458.915 236.797 455.145V262.85H251.341Z" fill="#C1A887"/>
<path d="M301.166 443.295L297.665 461.339C297.665 461.339 279.351 476.96 271.002 481.269C271.002 481.269 265.346 486.925 266.693 496.621C266.693 496.621 291.471 500.93 308.169 487.733C308.169 487.733 323.251 489.618 328.906 482.077C328.906 482.077 337.794 455.953 326.752 445.719L301.166 443.295Z" fill="#211F21"/>
<path d="M238.954 520.322C238.954 520.322 230.875 530.825 242.994 547.793C242.994 547.793 259.692 548.331 274.235 540.521C274.235 540.521 296.32 538.905 319.751 524.9C319.751 524.9 319.212 509.818 292.011 514.127C285.547 515.205 279.083 514.397 273.158 512.242C272.889 512.512 256.729 528.132 238.954 520.322Z" fill="#050505"/>
<path d="M155.193 351.995C155.193 351.995 230.065 324.255 238.683 347.147L277.734 504.97C277.734 504.97 256.997 521.398 233.835 516.82L201.247 398.049L155.193 351.995Z" fill="#565556"/>
<path d="M370.915 325.062L343.445 442.756" stroke="black" stroke-width="3" stroke-miterlimit="10" stroke-linecap="round" stroke-linejoin="round"/>
<path d="M398.386 443.295L394.885 461.339C394.885 461.339 376.571 476.96 368.222 481.269C368.222 481.269 362.566 486.925 363.913 496.621C363.913 496.621 388.691 500.93 405.389 487.733C405.389 487.733 420.471 489.618 426.126 482.077C426.126 482.077 435.014 455.953 423.972 445.719L398.386 443.295Z" fill="#211F21"/>
<path d="M463.56 343.377C463.56 343.377 479.719 314.021 467.6 260.695L439.321 255.309C439.321 255.309 445.516 328.564 426.932 349.302C426.932 349.302 441.745 361.69 463.56 343.377Z" fill="#211F21"/>
<path d="M465.991 153.505C470.839 155.121 474.879 158.353 477.303 162.393C502.08 203.869 484.036 282.78 484.036 282.78C483.228 305.941 441.214 298.131 438.251 297.323C460.874 251.269 465.453 199.559 457.373 150.543C460.605 151.62 463.567 152.698 465.991 153.505Z" fill="#333133"/>
<path d="M375.228 266.621C372.265 239.15 357.183 153.237 383.038 151.082C401.352 149.736 441.481 145.696 457.102 150.543C465.181 199.56 460.333 251.27 437.98 297.324H437.71L375.228 266.621Z" fill="#211F21"/>
<path d="M350.176 373.54H464.099C472.987 373.54 480.259 366.269 480.259 357.381V353.61C480.259 344.723 472.987 337.451 464.099 337.451H350.176C341.289 337.451 334.017 344.723 334.017 353.61V357.381C334.017 366.269 341.289 373.54 350.176 373.54Z" fill="#211F21"/>
<path d="M394.345 345.262L391.921 454.606C391.921 454.606 412.659 474.805 437.706 456.491L442.554 337.721C442.284 337.99 409.158 316.714 394.345 345.262Z" fill="#BA9A49"/>
<path d="M354.763 345.262C360.957 367.077 333.486 454.606 333.486 454.606C333.486 454.606 301.706 464.841 295.512 450.836C295.512 450.836 298.474 371.925 308.439 345.262C313.556 330.18 351.531 333.951 354.763 345.262Z" fill="#BA9A49"/>
<path d="M439.589 170.474C428.547 166.703 416.428 166.434 405.385 169.396C398.652 171.012 391.65 172.897 387.072 174.244C383.84 175.052 381.685 178.015 381.685 181.246V249.654L379.8 253.155L381.685 255.579L377.915 259.619L378.723 263.928L366.334 298.67L455.21 333.144L477.563 263.12L485.104 185.017L439.589 170.474Z" fill="#49BA6F"/>
<path d="M485.108 185.555C470.834 188.517 460.869 196.866 462.754 210.063C470.295 249.384 465.986 283.857 459.253 320.754L477.567 263.389L485.108 185.555Z" fill="#45A863"/>
<path d="M334.565 361.69L416.977 346.069L429.366 322.369L346.684 344.453L334.565 361.69Z" fill="#BA9A49"/>
<path d="M171.076 422.289L223.055 531.633" stroke="black" stroke-width="3" stroke-miterlimit="10" stroke-linecap="round" stroke-linejoin="round"/>
<path d="M171.076 376.504L223.055 485.848" stroke="black" stroke-width="3" stroke-miterlimit="10" stroke-linecap="round" stroke-linejoin="round"/>
<path d="M207.709 485.848L195.59 513.318C195.59 513.318 204.747 526.246 227.639 522.745L238.143 497.967L207.709 485.848Z" fill="#D3C9B6"/>
<path d="M76.5528 402.089C76.5528 402.089 54.4685 378.389 55.0071 326.41L81.4006 315.906C81.4006 315.906 90.8269 384.852 113.45 400.473C113.45 400.473 101.6 414.747 76.5528 402.089Z" fill="#211F21"/>
<path d="M30.7683 197.405C43.1571 188.787 77.3609 176.398 99.4452 174.782C105.909 174.244 109.41 182.054 111.834 187.979C115.605 197.405 117.22 206.024 120.183 237.265L88.4031 350.38C88.4031 350.38 46.1197 371.925 40.1946 345.263C40.1946 345.263 5.72148 261.773 21.3421 210.063C22.958 204.677 26.1899 200.368 30.7683 197.405Z" fill="#211F21"/>
<path d="M30.7711 197.406C26.462 200.368 22.9608 204.947 21.6142 210.064C5.72426 261.773 40.1974 345.263 40.1974 345.263C45.8531 370.848 85.174 351.996 88.1365 350.38C56.3566 304.595 43.6986 247.499 41.2747 191.48C38.3121 193.366 32.9257 195.79 30.7711 197.406Z" fill="#333133"/>
<path d="M160.307 157.815C160.307 157.815 161.923 141.656 159.768 132.768C158.691 128.19 157.614 114.185 169.464 110.145C169.464 110.145 167.579 106.644 163.808 105.836C162.192 105.567 169.464 103.951 169.464 103.951C169.464 103.951 169.464 101.796 167.04 98.0256C165.693 95.8711 175.928 101.258 175.928 101.258C175.928 101.258 193.972 85.0982 213.902 100.45C213.902 100.45 242.989 123.611 228.176 125.766C213.094 128.19 226.829 124.15 226.829 124.15L207.169 138.424L171.08 156.738L160.307 157.815Z" fill="#2B292B"/>
<path d="M90.56 422.289L38.3117 531.633" stroke="black" stroke-width="3" stroke-miterlimit="10" stroke-linecap="round" stroke-linejoin="round"/>
<path d="M136.342 389.969L84.0938 499.044" stroke="black" stroke-width="3" stroke-miterlimit="10" stroke-linecap="round" stroke-linejoin="round"/>
<path d="M186.697 431.175H72.7742C63.8866 431.175 56.6149 423.903 56.6149 415.016V411.245C56.6149 402.358 63.8866 395.086 72.7742 395.086H186.697C195.585 395.086 202.856 402.358 202.856 411.245V415.016C202.856 423.903 195.585 431.175 186.697 431.175Z" fill="#211F21"/>
<path d="M226.827 139.5L223.326 145.426C222.518 146.772 222.518 148.388 223.057 149.735L226.289 157.006C227.097 158.622 226.019 160.238 224.403 160.777L219.556 162.123L219.825 167.51C219.825 168.048 219.556 168.587 219.017 168.856L216.593 169.664L215.785 170.203V172.896C215.785 173.704 215.246 174.512 214.438 174.782L211.476 175.589L209.591 179.629C208.783 181.515 206.628 182.861 204.474 182.592L195.855 181.784L191.277 187.17L160.305 158.892L179.965 146.233C169.192 135.461 188.045 118.763 191.546 139.5C191.546 139.5 195.317 129.266 207.975 130.074C211.207 130.344 214.438 129.536 217.132 127.65C218.748 126.304 219.825 124.688 219.556 122.533C219.556 122.533 223.865 124.418 226.558 124.149C227.635 123.88 228.443 124.688 228.443 125.765L227.905 137.077C227.635 137.885 227.366 138.692 226.827 139.5Z" fill="#F4D695"/>
<path d="M167.577 154.314L160.305 158.893L191.008 187.441L195.586 182.055L204.204 182.862C204.743 182.862 205.282 182.862 205.82 182.862C189.122 180.977 177.003 168.588 167.577 154.314Z" fill="#EFC673"/>
<path d="M226.567 124.149C223.874 124.688 219.565 122.533 219.565 122.533C219.834 124.688 218.757 126.573 217.41 127.92C214.986 130.074 211.216 130.613 207.984 130.344C195.057 129.266 191.555 139.231 191.555 139.231C191.286 140.308 191.825 140.308 191.555 141.655C196.673 133.845 203.944 134.922 210.139 134.383C214.717 133.845 218.757 131.151 220.373 126.842C220.642 126.304 220.642 125.765 220.642 125.226C221.989 128.997 224.951 129.266 227.914 128.997L228.183 125.765C228.452 124.688 227.375 123.88 226.567 124.149Z" fill="#EFC673"/>
<path d="M73.8541 328.564C73.8541 328.564 70.8916 353.342 80.0485 374.888C85.435 387.815 96.7464 397.241 110.482 400.204C126.91 403.974 160.576 410.438 228.445 420.134C228.445 420.134 200.704 470.227 191.548 507.124C191.548 507.124 209.592 521.937 231.138 516.551C231.138 516.551 290.927 426.328 277.73 396.972C277.73 396.972 265.072 366.539 182.391 357.112L176.735 340.145L73.8541 328.564Z" fill="#6D6C6D"/>
<path d="M180.778 344.185L179.431 340.415L76.8198 328.834C76.8198 328.834 76.5505 331.527 76.5505 335.567C108.061 350.38 147.921 356.843 180.778 344.185Z" fill="#605E60"/>
<path d="M154.12 159.432C154.928 159.432 160.314 151.891 160.314 151.891L198.558 188.788L191.556 197.675L154.12 159.432Z" fill="#D3C9B6"/>
<path d="M78.9718 315.637C78.9718 315.637 72.2387 324.255 75.2013 333.95C75.2013 333.95 121.525 351.726 182.391 342.838C182.391 342.838 188.585 335.297 182.391 324.524C175.927 313.482 78.9718 315.637 78.9718 315.637Z" fill="#D3C9B6"/>
<path d="M154.111 159.432L194.24 197.675C194.24 197.675 191.278 334.76 183.467 335.568C92.9755 342.839 76.2776 318.331 76.2776 318.331C76.2776 318.331 73.0458 307.558 79.5095 302.441L77.8936 296.785L87.0505 289.244C87.0505 289.244 86.7812 283.319 88.9357 281.973L86.7812 276.586L91.0903 273.355C91.0903 273.355 93.5142 250.732 102.132 225.685C107.788 209.525 117.214 194.982 129.603 183.132L154.111 159.432Z" fill="#383538"/>
<path d="M176.195 196.329C165.961 193.905 158.42 198.753 153.303 206.563C140.106 248.308 158.959 290.053 187.237 322.102C190.738 297.055 192.893 242.921 193.701 214.912C188.584 208.179 182.39 200.369 176.195 196.329Z" fill="#2B292B"/>
<path d="M215.791 145.158C214.983 147.043 215.253 148.928 216.061 149.197C216.869 149.467 218.215 148.12 218.754 145.966C219.562 144.08 219.292 142.195 218.484 141.926C217.946 141.926 216.599 143.272 215.791 145.158Z" fill="black"/>
<path d="M223.326 137.077L222.518 140.578C222.518 140.578 218.209 138.154 210.129 139.501C210.129 139.501 212.283 135.461 223.326 137.077Z" fill="#2B292B"/>
<path d="M216.599 169.934L215.791 170.203V171.549C213.906 170.741 210.674 168.318 209.866 164.816C210.405 165.355 212.29 169.126 216.599 169.934Z" fill="#E5B45C"/>
<path d="M191.283 358.728C191.283 358.728 164.351 357.651 153.039 364.384C152.77 364.115 165.967 349.302 191.283 358.728Z" fill="#565556"/>
<path d="M195.854 510.355C195.854 510.355 183.734 515.742 186.427 536.48C186.427 536.48 200.971 544.829 217.399 544.829C217.399 544.829 237.598 553.985 264.8 552.639C264.8 552.639 271.533 539.173 245.409 530.016C239.214 527.861 233.828 524.36 229.788 519.243C229.249 519.512 207.704 525.437 195.854 510.355Z" fill="#211F21"/>
<path d="M182.129 351.187V563.412C182.129 567.452 178.897 570.953 174.857 570.953C170.817 570.953 167.585 567.721 167.585 563.412V350.918L182.129 351.187Z" fill="#C1A887"/>
<path d="M182.129 351.188H167.585V355.497C173.241 356.574 177.82 359.536 182.129 363.038V351.188Z" fill="#AF9679"/>
<path d="M311.399 207.371C314.092 206.293 321.902 204.139 322.71 200.907C322.979 199.291 321.094 196.867 320.286 195.521C318.67 192.289 316.246 188.788 315.977 185.017C315.708 180.708 315.708 177.207 312.745 173.436C310.86 171.282 308.436 169.666 306.551 167.511C306.012 166.434 305.204 165.626 304.666 164.549L304.396 164.279C303.858 163.202 303.05 162.394 301.972 161.586H301.703C301.164 161.317 300.626 161.586 300.357 162.125C300.087 164.01 300.087 165.895 301.164 167.781C301.703 168.588 302.242 169.127 303.05 169.935C304.666 171.82 305.474 173.706 305.743 175.86C303.588 174.783 301.703 173.167 299.549 172.359C297.394 171.282 294.97 170.743 292.546 170.204C286.082 168.319 280.696 165.357 274.771 162.125C273.963 161.586 272.616 162.663 273.424 163.471C275.848 167.242 279.619 169.396 283.12 171.82C286.352 173.975 289.584 175.86 292.546 178.015C284.736 175.591 277.734 171.551 270.731 167.242C269.923 166.703 268.846 167.511 269.115 168.319C270.193 172.09 274.771 174.783 278.003 176.937C280.696 178.553 283.389 179.9 286.352 180.977C283.659 180.439 280.965 179.361 278.542 178.284C276.656 176.937 274.771 175.86 272.886 174.783C272.347 174.514 271.808 174.514 271.539 175.052C270.731 175.052 270.193 176.129 271.001 176.668C272.886 178.553 275.04 180.169 277.195 181.516C276.387 181.247 275.31 182.055 275.848 182.862C279.888 187.98 285.544 188.788 291.2 190.942C294.97 192.289 298.741 194.443 302.242 196.598C305.743 198.752 307.628 202.792 309.783 206.293C310.591 207.371 311.129 207.64 311.399 207.371Z" fill="#F4D695"/>
<path d="M472.189 339.877V353.343H462.762L448.219 353.074L162.2 351.727V338.8L238.957 239.689L472.189 339.877Z" fill="#C1A887"/>
<path d="M357.179 241.034L472.179 339.875L160.305 340.145L238.139 237.533L357.179 241.034Z" fill="#D8BE98"/>
<path d="M381.694 179.898L352.608 232.416C352.608 232.416 334.025 200.367 319.481 186.631C319.481 186.631 314.633 187.709 308.978 192.287C303.322 196.866 302.245 202.521 302.245 202.521L343.451 274.43C343.451 274.43 352.338 286.55 362.573 273.892C363.65 272.276 381.694 245.074 381.694 245.074V179.898Z" fill="#2F9B56"/>
<path d="M441.477 185.016C443.093 193.365 435.282 201.714 424.509 203.868C413.467 205.754 403.502 200.636 401.886 192.287C400.27 183.939 408.081 175.59 418.854 173.435C429.896 171.28 439.861 176.667 441.477 185.016Z" fill="#2F9B56"/>
<path d="M401.893 172.897L408.356 193.904C409.164 196.597 411.319 198.482 414.012 199.021C419.399 199.829 428.286 199.829 435.289 191.48C436.904 189.595 437.443 187.171 436.635 184.747L430.171 163.201L401.893 172.897Z" fill="#F4D695"/>
<path d="M422.63 190.941C428.556 187.979 432.595 183.939 435.289 179.63L430.441 163.201L401.893 172.897L406.202 187.44C411.588 190.403 417.513 192.288 422.63 190.941Z" fill="#EFC673"/>
<path d="M470.57 186.364C465.453 190.134 463.029 194.713 461.952 199.022C460.336 205.216 461.144 211.949 464.376 217.605L500.734 286.821C502.081 289.244 504.774 290.86 507.737 290.322C512.854 289.244 520.933 286.551 523.627 278.472C530.898 257.195 494.809 196.867 490.5 189.596C490.231 189.057 489.692 188.518 489.423 188.249C486.73 186.094 478.919 180.169 470.57 186.364Z" fill="#2F9B56"/>
<path d="M419.937 290.859L396.506 293.283C396.506 293.283 379.539 306.48 384.387 312.944C384.387 312.944 383.579 316.714 388.426 315.906C388.426 315.906 388.696 318.599 393.005 318.061L401.623 311.866C401.623 311.866 394.621 322.909 400.007 324.794C400.007 324.794 402.431 316.714 410.241 312.405C410.241 312.405 422.899 309.981 425.593 303.787L419.937 290.859Z" fill="#F4D695"/>
<path d="M386.272 133.038C386.272 131.96 420.745 117.148 428.286 127.651C435.827 138.155 437.982 180.977 421.822 184.747C421.822 184.747 407.01 192.288 395.967 170.204C395.967 170.204 384.656 157.815 386.272 133.038Z" fill="#F4D695"/>
<path d="M386.27 133.037C381.422 144.618 388.963 152.159 388.694 150.812C388.155 148.657 388.155 147.041 388.425 145.695C388.694 142.732 391.656 140.578 394.619 141.655C405.661 145.156 413.202 140.847 421.282 134.653C423.167 133.037 426.13 131.959 428.284 133.306C431.247 135.461 433.132 140.308 433.132 143.002C434.748 142.463 432.055 143.54 433.401 142.463C432.593 136.269 430.977 131.151 428.553 127.92C420.743 117.147 386.809 131.959 386.27 133.037Z" fill="#EFC673"/>
<path d="M395.156 136.808L398.926 138.154C404.582 140.039 410.777 138.962 415.086 134.922L420.203 130.344C421.549 128.997 423.704 128.459 425.589 128.728C428.282 129.267 430.437 131.152 430.976 133.845L433.4 143.002L437.17 137.616C437.17 137.616 438.247 100.449 405.121 106.644C405.121 106.644 371.186 111.222 383.575 150.543L390.039 152.159C390.039 152.159 386.807 146.234 387.615 141.386C387.615 137.616 391.655 135.73 395.156 136.808Z" fill="#44230D"/>
<path d="M432.861 143.001L436.632 137.615C436.632 137.615 436.632 137.345 436.632 137.076C435.554 138.961 434.208 140.847 432.592 142.732L432.861 143.001Z" fill="#44230D"/>
<path d="M404.584 106.643C404.584 106.643 370.65 111.221 383.038 150.542L389.502 152.158C389.502 152.158 386.27 146.233 387.078 141.385C387.617 137.615 391.657 135.73 395.158 136.807L398.928 138.154C404.584 140.039 410.779 138.962 415.088 134.922L420.205 130.343C421.551 128.997 423.706 128.458 425.591 128.727C428.284 129.266 430.439 131.151 430.978 133.844L433.402 142.463C435.017 140.578 436.095 138.692 437.441 136.807C436.903 132.229 435.287 100.987 404.584 106.643Z" fill="#2B292B"/>
<path d="M432.323 145.426C433.131 140.578 435.825 137.077 438.248 137.347C440.672 137.885 442.019 141.925 441.211 146.773C440.403 151.621 437.71 155.122 435.286 154.852C432.862 154.583 431.515 150.274 432.323 145.426Z" fill="#F4D695"/>
<path d="M383.579 159.431C381.155 155.122 380.886 150.813 383.041 149.466C385.195 148.119 388.966 150.543 391.39 154.852C393.813 159.162 394.083 163.471 391.928 164.817C389.774 165.895 386.003 163.471 383.579 159.431Z" fill="#F4D695"/>
<path d="M383.579 159.431C381.155 155.122 380.886 150.813 383.041 149.466C385.195 148.119 388.966 150.543 391.39 154.852C393.813 159.162 394.083 163.471 391.928 164.817C389.774 165.895 386.003 163.471 383.579 159.431Z" fill="#F4D695"/>
<path d="M400.544 157.276C401.083 159.161 401.891 160.507 402.699 160.238C403.507 159.969 403.776 158.353 403.238 156.468C402.699 154.582 401.891 153.236 401.083 153.505C400.275 153.774 400.006 155.39 400.544 157.276Z" fill="black"/>
<path d="M421.278 152.698C421.547 154.583 422.624 155.93 423.432 155.93C424.24 155.661 424.51 154.045 424.24 152.16C423.971 150.274 422.894 148.928 422.086 148.928C421.278 149.197 421.009 150.813 421.278 152.698Z" fill="black"/>
<path d="M410.236 164.817H414.814C415.353 164.817 415.622 164.548 416.161 164.279L419.393 161.047L417.238 165.356C416.699 166.164 415.891 166.703 414.814 166.164L410.236 164.817Z" fill="#E5B45C"/>
<path d="M404.043 150.543L396.233 152.159L392.732 155.93L395.425 150.005L403.774 148.389L404.043 150.543Z" fill="#44230D"/>
<path d="M416.17 145.696L423.98 144.08L428.828 145.965L423.711 141.656L415.362 143.541L416.17 145.696Z" fill="#44230D"/>
<path d="M409.162 173.705C409.162 173.705 416.973 176.129 426.399 168.588C426.129 168.588 418.319 177.475 409.162 173.705Z" fill="#E5B45C"/>
<path d="M388.158 153.237C387.081 152.698 386.273 152.429 385.734 152.967C384.387 153.775 384.387 156.738 386.003 159.431C387.619 162.124 389.774 163.471 391.12 163.202C390.313 161.047 388.966 157.546 388.158 153.237Z" fill="#E5B45C"/>
<path d="M433.939 143.003C434.478 142.195 435.286 141.656 436.094 141.656C437.71 141.926 438.787 144.619 438.248 147.851C437.979 150.813 436.363 153.237 435.016 153.237C435.286 151.082 435.016 147.581 433.939 143.003Z" fill="#E5B45C"/>
<path d="M418.86 290.86C418.86 290.86 473.801 260.158 500.464 260.696C508.544 260.966 518.239 284.397 511.506 288.706C484.036 306.212 425.054 305.942 425.054 305.942C425.054 305.942 414.82 301.903 418.86 290.86Z" fill="#2F9B56"/>
<path d="M352.874 327.218C365.666 327.218 376.036 324.807 376.036 321.832C376.036 318.857 365.666 316.445 352.874 316.445C340.082 316.445 329.712 318.857 329.712 321.832C329.712 324.807 340.082 327.218 352.874 327.218Z" fill="#B79F80"/>
<path d="M462.759 353.342V563.412C462.759 567.452 459.527 570.953 455.487 570.953C451.447 570.953 448.215 567.721 448.215 563.412V353.072L462.759 353.342Z" fill="#C1A887"/>
<path d="M462.759 353.342L448.215 353.072V363.306C453.063 364.653 457.911 365.73 462.759 367.616V353.342Z" fill="#AF9679"/>
<path d="M351.53 323.987H354.493C363.919 323.987 371.729 316.446 371.729 306.75V286.82H334.563V306.75C334.563 316.176 342.104 323.987 351.53 323.987Z" fill="#E14026"/>
<path d="M352.872 290.59C363.136 290.59 371.456 288.902 371.456 286.819C371.456 284.737 363.136 283.049 352.872 283.049C342.609 283.049 334.289 284.737 334.289 286.819C334.289 288.902 342.609 290.59 352.872 290.59Z" fill="#211F21"/>
<path d="M367.953 300.285V311.866C380.342 314.29 383.035 302.978 382.496 298.4C382.227 295.168 380.342 293.552 378.457 292.744C373.339 291.128 367.953 300.285 367.953 300.285ZM368.761 302.978C368.761 302.978 374.147 295.706 377.379 296.784C378.457 297.053 379.534 298.13 379.803 300.016C380.073 302.709 378.457 309.442 371.185 308.095L368.761 302.978Z" fill="#E14026"/>
<path d="M252.952 262.312C265.744 262.312 276.114 259.9 276.114 256.925C276.114 253.951 265.744 251.539 252.952 251.539C240.16 251.539 229.791 253.951 229.791 256.925C229.791 259.9 240.16 262.312 252.952 262.312Z" fill="#B79F80"/>
<path d="M252.959 258.542C243.802 258.542 236.261 251.001 236.261 241.844V225.146H269.657V241.844C269.657 251.001 262.385 258.542 252.959 258.542Z" fill="#E14026"/>
<path d="M269.657 225.415C269.657 227.3 262.116 228.916 252.959 228.916C243.802 228.916 236.261 227.3 236.261 225.415C236.261 223.53 243.802 221.914 252.959 221.914C262.385 221.914 269.657 223.53 269.657 225.415Z" fill="#211F21"/>
<path d="M230.062 230.802C228.446 231.34 226.831 232.956 226.561 235.65C226.023 239.689 228.716 249.654 239.758 247.5V236.996C239.489 237.265 234.91 229.186 230.062 230.802ZM237.065 244.268C230.601 245.614 228.985 239.689 229.254 236.996C229.524 235.38 230.601 234.303 231.409 234.034C234.372 232.956 238.95 239.42 238.95 239.42L237.065 244.268Z" fill="#E14026"/>
<path d="M289.31 229.454L276.383 239.419C276.113 239.419 275.844 239.419 275.575 239.419C275.575 239.419 244.872 243.728 229.521 257.463C229.521 257.463 213.361 232.147 198.818 212.756C190.738 232.955 186.16 254.231 185.352 276.046C202.589 292.206 222.788 305.402 235.984 294.899C235.984 294.899 235.984 294.899 236.254 294.899C238.947 293.014 273.42 270.929 286.886 261.234C296.851 256.117 302.237 245.613 302.237 245.613C299.544 237.533 289.31 229.454 289.31 229.454Z" fill="#2B292B"/>
<path d="M289.308 252.886C289.308 252.886 295.772 251.539 299.812 253.155C300.889 253.424 301.966 253.694 302.774 253.424C306.545 252.617 315.163 249.654 325.667 241.036C326.475 240.497 326.475 239.15 325.667 238.612C324.051 236.996 320.28 235.38 313.816 239.15C313.278 239.42 312.739 239.689 312.201 239.689C309.777 239.958 303.852 239.689 312.201 232.148C312.201 232.148 320.549 225.954 327.282 230.532C328.09 231.071 329.168 230.263 328.898 229.455C327.821 225.954 322.435 220.298 311.662 224.607C311.662 224.607 318.395 222.183 327.282 227.031L328.09 225.415C330.245 222.183 309.507 197.136 280.151 236.996L289.308 252.886Z" fill="#F4D695"/>
<path d="M282.845 279.548L267.224 283.858C266.955 283.858 266.686 283.588 266.416 283.588C266.416 283.588 236.522 275.509 217.131 282.511C217.131 282.511 206.088 216.258 197.201 204.139C192.084 197.136 181.042 189.057 172.154 192.288C148.723 200.368 151.686 224.068 153.84 235.649C156.264 248.307 177.54 328.026 208.243 319.139C208.243 319.139 208.243 319.139 208.512 319.139C211.744 318.6 251.873 311.598 268.032 307.827C279.074 307.019 288.231 299.478 288.231 299.478C289.039 291.129 282.845 279.548 282.845 279.548Z" fill="#383538"/>
<path d="M350.183 236.726L308.439 216.258L272.619 265.274L315.441 289.783L350.183 236.726Z" fill="white"/>
<path d="M283.93 281.702C283.93 281.702 289.586 278.201 291.471 274.43C292.01 273.353 292.549 272.545 293.626 272.006C296.858 270.121 305.207 266.081 318.673 265.273C319.75 265.273 320.558 266.081 320.289 266.889C320.019 269.044 318.673 272.814 311.401 274.7C310.862 274.7 310.324 274.969 310.055 275.238C308.169 276.854 304.129 280.894 315.172 280.625C315.172 280.625 325.406 279.547 327.291 271.468C327.56 270.391 328.638 270.391 329.176 271.198C330.792 274.43 330.792 282.51 320.019 286.55C320.019 286.55 328.368 284.395 331.331 274.7C335.371 275.508 335.64 302.978 288.509 299.477L283.93 281.702Z" fill="#F4D695"/>
<path d="M282.844 279.549L267.224 283.858C266.954 283.858 266.685 283.589 266.416 283.589C266.416 283.589 265.877 283.589 265.338 283.319C268.84 291.399 269.917 299.748 268.84 307.828C279.882 306.75 288.769 299.479 288.769 299.479C289.039 291.13 282.844 279.549 282.844 279.549Z" fill="#D3C9B6"/>
<path d="M188.052 139.231C188.052 139.231 186.975 130.882 182.396 135.73C182.396 135.73 179.703 140.039 182.396 143.541C182.396 143.541 184.281 139.501 188.052 139.231Z" fill="#E5B45C"/>
<path d="M231.144 124.418C231.144 124.418 224.142 131.42 212.561 116.877L231.144 124.418Z" fill="#2B292B"/>
</svg>
