<svg width="491" height="431" viewBox="0 0 491 431" fill="none" xmlns="http://www.w3.org/2000/svg">
<path d="M269.853 38.5734C269.853 38.5734 289.614 0.402858 297.347 0.574798C305.079 0.918677 305.079 14.158 305.079 14.158C305.079 14.158 320.029 2.81001 322.091 7.28044C323.981 11.7509 323.981 11.7509 323.981 11.7509C323.981 11.7509 359.723 20.8637 373.47 37.7137C387.389 54.5638 394.091 72.7894 387.733 86.2007C381.547 99.44 369.862 143.628 369.862 143.628L374.673 161.854L321.232 193.491L308.688 170.623C308.688 170.623 281.366 178.704 277.757 175.265C274.149 171.827 259.715 127.294 259.715 127.294L243.046 115.774C243.046 115.774 257.653 83.6216 258.855 74.8527C260.402 66.0837 265.557 49.4056 269.853 38.5734Z" fill="white" stroke="#263238" stroke-miterlimit="10" stroke-linecap="round" stroke-linejoin="round"/>
<path d="M266.932 137.438C266.932 137.438 270.712 140.189 275.867 130.904" stroke="#263238" stroke-miterlimit="10" stroke-linecap="round" stroke-linejoin="round"/>
<path d="M269.853 38.5734C269.853 38.5734 289.614 0.402858 297.347 0.574798C305.079 0.918677 305.079 14.158 305.079 14.158C305.079 14.158 320.029 2.81001 322.091 7.28044C323.981 11.7509 323.981 11.7509 323.981 11.7509C323.981 11.7509 359.723 20.8637 373.47 37.7137C387.389 54.5638 394.091 72.7894 387.733 86.2007C382.921 96.517 374.845 125.059 371.408 137.611C367.628 139.158 363.504 140.534 359.552 140.877C342.368 142.769 325.7 127.466 325.7 127.466C325.7 127.466 335.666 120.76 332.058 105.974C328.621 91.015 318.311 90.843 318.311 90.843C318.311 90.843 312.984 102.535 304.736 100.644C296.488 98.5803 310.063 86.3726 310.578 79.8389C311.265 73.3052 303.017 66.9434 300.612 63.1608C298.206 59.3781 310.75 56.971 314.874 53.1883C318.826 49.4056 290.301 45.2791 284.115 43.2158C277.757 41.3245 289.614 40.2928 294.941 34.9627C300.268 29.6326 269.853 38.5734 269.853 38.5734Z" fill="#263238" stroke="#263238" stroke-miterlimit="10" stroke-linecap="round" stroke-linejoin="round"/>
<path d="M266.932 87.7482C266.76 91.187 267.791 94.11 269.337 94.2819C270.884 94.2819 272.259 91.5309 272.43 88.0921C272.602 84.6533 271.571 81.7304 270.025 81.5584C268.478 81.3865 267.103 84.1375 266.932 87.7482Z" fill="#263238"/>
<path d="M277.414 74.3364C277.414 74.3364 270.197 58.6899 261.777 68.8343" stroke="#263238" stroke-miterlimit="10" stroke-linecap="round" stroke-linejoin="round"/>
<path d="M326.043 127.295L314.015 127.639L313.671 137.267" stroke="#263238" stroke-miterlimit="10" stroke-linecap="round" stroke-linejoin="round"/>
<path d="M302.33 201.4C302.33 201.4 292.535 210.685 291.332 216.187C290.13 221.689 289.442 226.675 289.442 226.675C289.442 226.675 271.571 251.263 269.853 264.674C267.963 278.257 273.462 307.659 273.462 307.659L309.032 202.088L302.33 201.4Z" fill="#263238" stroke="#263238" stroke-miterlimit="10" stroke-linecap="round" stroke-linejoin="round"/>
<path d="M376.048 141.221C376.048 141.221 302.674 193.662 302.158 195.21C301.814 196.757 301.299 211.888 301.299 211.888L386.014 155.836L376.048 141.221Z" fill="white" stroke="#263238" stroke-miterlimit="10" stroke-linecap="round" stroke-linejoin="round"/>
<path d="M301.471 211.888C301.471 211.888 281.194 247.308 280.163 252.638C278.96 258.14 266.932 334.997 266.932 334.997L251.81 429.564H442.548C442.548 429.564 438.424 390.877 436.019 359.412C433.613 327.947 432.582 281.524 421.069 240.258C414.711 217.046 386.014 155.836 386.014 155.836L301.471 211.888Z" fill="#016A4D"/>
<path d="M209.366 326.572C209.366 326.572 199.4 308.862 197.338 306.455C195.276 304.048 185.309 300.437 182.56 299.406C179.811 298.374 156.441 290.637 155.066 290.637C153.691 290.637 151.973 293.732 152.317 297.342C152.66 300.953 158.675 305.08 160.049 305.424C161.424 305.767 142.007 305.767 135.305 306.455C128.603 307.143 115.887 309.55 114.856 312.473C113.825 315.224 114.856 318.147 118.809 318.491C122.761 318.835 130.15 317.803 130.15 317.803L148.536 319.523C148.536 319.523 124.823 323.133 121.386 323.821C117.778 324.509 115.716 329.151 117.434 331.558C119.152 333.965 129.463 332.59 129.463 332.59L146.818 331.558C146.818 331.558 124.136 338.608 123.105 339.983C122.074 341.359 122.761 345.657 125.854 346.345C128.947 347.033 143.897 345.313 143.897 345.313L151.286 346.345C151.286 346.345 140.632 347.721 140.632 349.096C140.632 350.472 140.632 352.707 143.038 352.707C145.443 352.707 161.768 352.363 161.768 352.363C161.768 352.363 169.157 356.661 175.515 356.318C181.873 355.974 207.992 352.707 207.992 352.707L209.366 326.572Z" fill="white" stroke="#263238" stroke-miterlimit="10" stroke-linecap="round" stroke-linejoin="round"/>
<path d="M159.878 305.252L171.047 310.754C171.047 310.754 171.047 321.414 180.842 328.464" stroke="#263238" stroke-miterlimit="10" stroke-linecap="round" stroke-linejoin="round"/>
<path d="M148.021 316.6C148.021 316.6 150.427 338.436 152.145 343.766" stroke="#263238" stroke-miterlimit="10" stroke-linecap="round" stroke-linejoin="round"/>
<path d="M273.633 330.698L225.175 328.119V354.942L267.447 360.788L273.633 330.698Z" fill="#016A4D"/>
<path d="M225.175 328.12L209.366 326.057L207.82 352.879L225.175 354.942V328.12Z" fill="white" stroke="#263238" stroke-miterlimit="10" stroke-linecap="round" stroke-linejoin="round"/>
<path d="M364.191 216.014C364.191 216.014 349.585 205.526 340.821 207.245C332.058 208.965 306.454 217.733 300.612 229.425C294.769 241.117 259.199 347.376 259.199 347.376L123.964 337.403L118.981 386.234C118.981 386.234 264.526 416.839 276.211 418.559C287.896 420.278 300.783 420.278 306.626 414.432C312.468 408.586 373.642 276.709 373.642 276.709" fill="#016A4D"/>
<path d="M123.964 337.403L101.969 334.309L100.079 376.09L119.324 378.841L123.964 337.403Z" fill="white" stroke="#263238" stroke-miterlimit="10" stroke-linecap="round" stroke-linejoin="round"/>
<path d="M101.969 334.309C101.969 334.309 90.7994 320.038 88.5655 314.364C86.3316 308.518 74.3031 307.831 68.9762 306.283C63.6492 304.736 55.9166 301.641 55.0574 304.392C54.3701 307.143 53.8546 312.817 56.9476 315.224C60.0407 317.459 67.2578 319.007 69.3199 320.554C71.2101 322.102 73.1002 323.649 73.1002 323.649L38.0456 327.088C38.0456 327.088 21.893 324.853 14.5041 327.088C7.1151 329.323 1.44446 329.323 1.10079 332.418C0.757119 335.513 1.4445 339.811 3.3347 340.155C5.2249 340.499 11.411 339.811 12.6139 339.811C12.6139 339.811 8.31792 344.11 8.83343 345.657C9.34894 347.205 11.9265 351.503 13.473 351.503C15.0196 351.503 24.6424 352.191 26.1889 352.707C27.7354 353.223 34.6089 360.1 36.1554 360.788C37.7019 361.476 48.5276 365.43 48.5276 365.43C48.5276 365.43 52.3081 368.525 60.0407 370.417C67.7733 372.308 100.079 376.434 100.079 376.434L101.969 334.309Z" fill="white" stroke="#263238" stroke-miterlimit="10" stroke-linecap="round" stroke-linejoin="round"/>
<path d="M48.6995 364.055C48.6995 364.055 52.6517 364.742 56.9476 365.43" stroke="#263238" stroke-miterlimit="10" stroke-linecap="round" stroke-linejoin="round"/>
<path d="M12.6138 339.639L31.5158 338.951L50.0741 340.842" stroke="#263238" stroke-miterlimit="10" stroke-linecap="round" stroke-linejoin="round"/>
<path d="M26.1889 352.363L36.4991 353.051L52.6517 353.911" stroke="#263238" stroke-miterlimit="10" stroke-linecap="round" stroke-linejoin="round"/>
<path d="M479.493 429.908L490.319 322.446C491.865 307.316 480.181 294.076 465.059 293.56C451.656 293.045 439.971 302.845 438.081 316.256L421.928 430.08H479.493V429.908Z" fill="#263238" stroke="#263238" stroke-miterlimit="10" stroke-linecap="round" stroke-linejoin="round"/>
</svg>
