<svg width="1253" height="500" viewBox="0 0 1253 500" fill="none" xmlns="http://www.w3.org/2000/svg">
<path d="M1133.76 265.162C1098.53 233.525 1054.88 204.467 1004.71 178.848C950.408 151.338 895.077 132.597 823.593 120.561C775.307 112.308 724.959 107.665 674.267 106.806C580.101 105.258 502.431 116.606 425.104 145.32C342.279 176.097 264.781 211.001 184.018 243.498C175.598 246.936 167.178 250.203 158.586 253.47C17.6803 308.491 -50.7106 406.152 44.4868 430.052H1140.97C1140.97 430.052 1240.64 427.301 1216.07 372.796C1199.06 334.798 1171.05 298.518 1133.76 265.162Z" fill="#7BD7CD"/>
<path d="M43.9727 430.052H1251.64" stroke="#263238" stroke-miterlimit="10" stroke-linecap="round" stroke-linejoin="round"/>
<path d="M524.254 202.06C524.254 202.06 520.646 243.326 520.646 245.733C520.646 248.14 472.875 362.136 469.095 372.624C465.314 383.113 457.925 403.401 460.503 412.342C462.909 421.283 476.484 429.88 484.388 432.459C492.121 435.038 507.758 434.866 510.679 434.351C513.6 433.835 528.722 434.007 528.722 434.007L543.5 398.587L530.44 392.053L550.201 334.97L542.125 266.194L524.254 202.06Z" fill="#263238" stroke="#263238" stroke-miterlimit="10" stroke-linecap="round" stroke-linejoin="round"/>
<path d="M530.267 392.225C530.267 392.225 499.508 378.126 483.527 378.814" stroke="white" stroke-miterlimit="10" stroke-linecap="round" stroke-linejoin="round"/>
<path d="M556.561 381.565L552.609 430.052H764.655C757.094 386.036 757.094 351.648 757.094 351.648C757.094 351.648 767.748 266.022 767.748 255.877C767.748 245.733 775.824 216.503 773.934 211.517C771.872 206.531 727.195 192.948 707.949 186.07C688.703 179.192 661.21 173.175 661.21 173.175L611.033 178.677C611.033 178.677 552.093 189.509 539.549 191.572C527.005 193.635 525.287 196.73 524.256 202.232C523.225 207.906 541.955 266.538 541.955 266.538L556.561 381.565Z" fill="#263238" stroke="#263238" stroke-miterlimit="10" stroke-linecap="round" stroke-linejoin="round"/>
<path d="M604.5 209.11C604.5 209.11 608.452 235.76 613.607 257.769C618.762 279.777 632.853 312.445 632.853 312.445C632.853 312.445 667.22 256.565 672.375 230.774C677.53 204.811 679.077 196.902 679.077 196.902L604.844 196.214L604.5 209.11Z" fill="white" stroke="#263238" stroke-miterlimit="10" stroke-linecap="round" stroke-linejoin="round"/>
<path d="M612.405 161.311C612.405 161.311 605.36 179.02 601.751 185.898C598.143 192.776 577.694 222.005 578.725 224.24C579.928 226.648 590.238 223.381 592.988 222.177C595.737 220.802 608.453 215.987 608.453 215.987C608.453 215.987 605.703 222.005 606.906 223.897C608.109 225.788 627.011 243.326 627.011 243.326L641.961 243.498C641.961 243.498 644.367 240.575 647.116 238.168C649.865 235.76 668.424 223.897 673.235 220.63C678.047 217.363 678.39 208.594 678.39 208.594C678.39 208.594 702.791 221.833 703.994 217.191C705.197 212.377 698.839 206.703 692.481 190.368C686.123 174.034 683.889 163.374 678.734 155.637C673.579 147.899 671.689 147.555 671.689 147.555L612.405 161.311Z" fill="white" stroke="#263238" stroke-miterlimit="10" stroke-linecap="round" stroke-linejoin="round"/>
<path d="M617.562 171.455C617.562 171.455 619.109 214.956 619.453 222.349C619.796 229.914 635.262 263.615 638.011 259.144C640.76 254.674 658.631 221.146 664.13 208.766C669.629 196.386 671.691 171.283 672.55 166.125C673.409 160.967 674.097 137.583 674.097 137.583C674.097 137.583 653.476 168.876 645.228 173.518C636.98 178.161 617.562 171.455 617.562 171.455Z" fill="white" stroke="#263238" stroke-miterlimit="10" stroke-linecap="round" stroke-linejoin="round"/>
<path d="M643.338 182.975L618.594 198.278L617.562 171.455L643.338 182.975Z" fill="#263238" stroke="#263238" stroke-miterlimit="10" stroke-linecap="round" stroke-linejoin="round"/>
<path d="M543.501 398.587C543.501 398.587 590.241 404.605 593.677 404.433C597.114 404.261 611.72 412.858 617.047 416.641C622.374 420.595 632.856 429.536 632.856 429.536L578.384 430.74C578.384 430.74 572.198 429.364 568.933 429.536C565.668 429.708 561.2 432.287 551.749 432.287C542.298 432.287 531.645 427.645 531.645 427.645L543.501 398.587Z" fill="white" stroke="#263238" stroke-miterlimit="10" stroke-linecap="round" stroke-linejoin="round"/>
<path d="M560.855 421.799C560.855 421.799 570.994 419.564 574.259 421.111C577.524 422.659 590.411 430.052 590.411 430.052" stroke="#263238" stroke-miterlimit="10" stroke-linecap="round" stroke-linejoin="round"/>
<path d="M569.105 414.406C569.105 414.406 584.571 414.234 587.148 415.093C589.726 415.953 605.535 429.88 605.535 429.88" stroke="#263238" stroke-miterlimit="10" stroke-linecap="round" stroke-linejoin="round"/>
<path d="M583.883 409.247C583.883 409.247 596.255 409.247 598.145 410.967C600.035 412.686 618.25 427.301 619.625 429.02" stroke="#263238" stroke-miterlimit="10" stroke-linecap="round" stroke-linejoin="round"/>
<path d="M705.197 413.03L697.121 395.148L716.195 392.913C716.195 392.913 717.913 407.872 705.197 413.03Z" fill="white" stroke="#263238" stroke-miterlimit="10" stroke-linecap="round" stroke-linejoin="round"/>
<path d="M738.878 247.796C738.878 247.796 712.931 280.809 712.415 288.89C711.9 296.971 723.585 364.199 723.585 364.199L700.73 369.701C700.73 369.701 706.745 385.692 706.745 394.805C706.745 403.917 705.198 413.202 705.198 413.202C705.198 413.202 750.391 422.143 762.592 420.767C774.792 419.22 778.401 414.578 785.961 403.573C793.522 392.569 784.415 374.172 780.463 364.199C776.338 354.227 777.885 349.069 777.885 349.069L766.372 244.873" fill="#263238"/>
<path d="M738.878 247.796C738.878 247.796 712.931 280.809 712.415 288.89C711.9 296.971 723.585 364.199 723.585 364.199L700.73 369.701C700.73 369.701 706.745 385.692 706.745 394.805C706.745 403.917 705.198 413.202 705.198 413.202C705.198 413.202 750.391 422.143 762.592 420.767C774.792 419.22 778.401 414.578 785.961 403.573C793.522 392.569 784.415 374.172 780.463 364.199C776.338 354.227 777.885 349.069 777.885 349.069L766.372 244.873" stroke="#263238" stroke-miterlimit="10" stroke-linecap="round" stroke-linejoin="round"/>
<path d="M723.586 364.199C723.586 364.199 750.908 358.009 767.748 357.494L723.586 364.199Z" fill="white"/>
<path d="M723.586 364.199C723.586 364.199 750.908 358.009 767.748 357.494" stroke="#263238" stroke-miterlimit="10" stroke-linecap="round" stroke-linejoin="round"/>
<path d="M638.01 331.531L630.449 289.75C630.449 289.75 586.631 291.813 567.213 292.844C547.796 293.876 489.887 292.157 489.887 292.157C489.887 292.157 523.223 380.19 526.144 387.239C529.065 394.289 531.471 400.307 531.471 400.307C531.471 400.307 565.323 406.153 599.003 405.293C632.683 404.433 647.976 396.18 647.976 396.18L638.01 331.531Z" fill="white" stroke="#263238" stroke-miterlimit="10" stroke-linecap="round" stroke-linejoin="round"/>
<path d="M700.73 369.529L684.749 363.168C684.749 363.168 657.427 342.191 654.849 339.784C652.272 337.377 638.009 331.359 638.009 331.359L641.274 348.209C641.274 348.209 592.301 370.217 589.036 372.796C585.771 375.375 592.645 377.783 592.645 377.783C592.645 377.783 586.115 381.909 589.38 383.972C592.645 386.036 603.814 385.52 603.814 385.52C603.814 385.52 610.687 389.302 617.905 389.99C625.122 390.85 641.618 391.538 641.618 391.538C641.618 391.538 639.9 394.461 634.401 396.18C628.902 397.899 612.749 403.058 614.983 405.981C617.217 408.732 632.682 405.981 632.682 405.981C632.682 405.981 662.238 399.447 663.269 399.447C664.3 399.447 673.751 401.51 678.391 401.338C683.031 401.166 693.856 399.275 693.856 399.275L706.744 399.103C706.572 399.447 706.228 377.783 700.73 369.529Z" fill="white" stroke="#263238" stroke-miterlimit="10" stroke-linecap="round" stroke-linejoin="round"/>
<path d="M641.102 348.209L650.209 343.91" stroke="#263238" stroke-miterlimit="10" stroke-linecap="round" stroke-linejoin="round"/>
<path d="M592.645 377.782L641.79 361.62" stroke="#263238" stroke-miterlimit="10" stroke-linecap="round" stroke-linejoin="round"/>
<path d="M603.812 385.692L649.693 377.439" stroke="#263238" stroke-miterlimit="10" stroke-linecap="round" stroke-linejoin="round"/>
<path d="M641.445 391.882L654.505 391.022" stroke="#263238" stroke-miterlimit="10" stroke-linecap="round" stroke-linejoin="round"/>
<path d="M648.148 27.5418C648.148 27.5418 651.07 11.5514 656.053 10.5197C661.036 9.48811 692.482 11.8953 698.325 21.18C704.167 30.6367 706.401 62.7894 703.48 66.2281C700.559 69.6669 682.688 72.9338 680.454 72.9338C678.392 72.9338 671.346 49.8939 660.005 41.125C649.008 32.528 648.148 27.5418 648.148 27.5418Z" fill="#263238" stroke="#263238" stroke-miterlimit="10" stroke-linecap="round" stroke-linejoin="round"/>
<path d="M593.161 32.528C593.161 32.528 579.414 39.2336 576.836 47.3147C574.259 55.3959 573.915 64.1648 573.915 64.1648C573.915 64.1648 556.388 70.1827 558.45 83.594C560.512 96.8333 575.118 105.086 576.321 105.946C577.524 106.806 590.068 127.095 590.068 127.095L591.271 109.901C591.271 109.901 590.411 106.978 609.657 105.43C628.903 103.883 642.134 105.946 647.633 104.399C653.132 103.023 655.194 102.507 655.194 102.507C655.194 102.507 656.397 104.055 662.239 107.322C668.082 110.417 675.986 117.294 678.907 115.059C681.828 112.824 685.609 93.9104 685.609 93.9104C685.609 93.9104 688.186 61.7577 688.186 55.9117C688.186 50.0658 675.299 38.3739 671.862 35.6229C668.597 32.8718 641.103 21.3519 634.745 19.4606C628.559 17.5692 610.173 19.9764 603.127 24.4468C596.082 28.5733 593.161 32.528 593.161 32.528Z" fill="#263238" stroke="#263238" stroke-miterlimit="10" stroke-linecap="round" stroke-linejoin="round"/>
<path d="M583.367 102.163C583.367 102.163 595.052 142.225 596.255 150.478C597.286 157.7 606.05 164.749 610.861 169.564C615.844 174.55 633.2 193.291 640.417 186.414C645.056 182.115 662.412 165.093 667.395 158.216C672.378 151.338 673.409 141.194 675.128 135.004C676.846 128.642 676.846 128.642 676.846 128.642C676.846 128.642 685.266 123.312 686.469 116.263C687.672 109.041 691.968 93.0507 685.61 93.7384C679.424 94.4262 678.908 104.399 678.565 107.322C678.221 110.245 674.784 107.494 672.722 105.43C670.66 103.367 665.161 103.195 662.756 100.444C660.178 97.693 666.192 75.6848 663.271 77.4042C660.35 79.1236 658.288 94.7701 639.558 95.8017C620.827 97.0053 607.94 94.0823 607.94 94.0823C607.94 94.0823 599.176 107.837 583.367 102.163Z" fill="white" stroke="#263238" stroke-miterlimit="10" stroke-linecap="round" stroke-linejoin="round"/>
<path d="M624.608 117.982C624.608 117.982 588.179 116.606 587.148 117.638C586.117 118.67 589.553 131.565 592.646 135.692C595.739 139.646 611.548 139.13 616.36 136.895C621.171 134.66 624.608 117.982 624.608 117.982Z" stroke="#263238" stroke-miterlimit="10" stroke-linecap="round" stroke-linejoin="round"/>
<path d="M631.137 117.81C631.137 117.81 637.667 135.004 641.447 137.067C645.227 138.959 654.85 139.646 660.005 138.787C665.16 137.927 668.941 135.004 669.628 133.628C670.315 132.253 672.034 116.091 672.034 116.091L631.137 117.81Z" stroke="#263238" stroke-miterlimit="10" stroke-linecap="round" stroke-linejoin="round"/>
<path d="M631.135 117.81L624.605 117.982" stroke="#263238" stroke-miterlimit="10" stroke-linecap="round" stroke-linejoin="round"/>
<path d="M671.863 115.919L678.393 102.164" stroke="#263238" stroke-miterlimit="10" stroke-linecap="round" stroke-linejoin="round"/>
<path d="M601.926 128.126C601.926 128.126 609.487 134.316 616.016 127.611" stroke="#263238" stroke-miterlimit="10" stroke-linecap="round" stroke-linejoin="round"/>
<path d="M643.164 127.954C643.164 127.954 652.787 132.081 657.598 127.095" stroke="#263238" stroke-miterlimit="10" stroke-linecap="round" stroke-linejoin="round"/>
<path d="M617.734 116.778C617.734 116.778 605.705 112.136 596.426 114.887" stroke="#263238" stroke-miterlimit="10" stroke-linecap="round" stroke-linejoin="round"/>
<path d="M636.98 115.059C636.98 115.059 652.102 112.136 660.694 113.855" stroke="#263238" stroke-miterlimit="10" stroke-linecap="round" stroke-linejoin="round"/>
<path d="M622.887 145.492C622.887 145.492 622.543 152.026 623.23 153.058C623.918 154.089 626.667 157.012 629.416 156.668C632.166 156.152 637.665 152.542 637.665 152.542" stroke="#263238" stroke-miterlimit="10" stroke-linecap="round" stroke-linejoin="round"/>
<path d="M619.625 160.795C619.625 160.795 629.248 167.329 639.902 159.763" stroke="#263238" stroke-miterlimit="10" stroke-linecap="round" stroke-linejoin="round"/>
<path d="M933.224 39.0617C933.224 39.0617 952.986 0.89114 960.718 1.06308C968.451 1.40696 968.451 14.6463 968.451 14.6463C968.451 14.6463 983.401 3.29829 985.463 7.76872C987.353 12.2391 987.353 12.2391 987.353 12.2391C987.353 12.2391 1023.09 21.3519 1036.84 38.202C1050.76 55.0521 1057.46 73.2777 1051.1 86.6889C1044.92 99.9283 1033.23 144.117 1033.23 144.117L1038.04 162.342L984.604 193.979L972.06 171.111C972.06 171.111 944.738 179.192 941.129 175.754C937.52 172.315 923.086 127.782 923.086 127.782L906.418 116.263C906.418 116.263 921.024 84.1098 922.227 75.3409C923.773 66.572 928.928 49.8939 933.224 39.0617Z" fill="white" stroke="#263238" stroke-miterlimit="10" stroke-linecap="round" stroke-linejoin="round"/>
<path d="M930.305 137.927C930.305 137.927 934.085 140.678 939.24 131.393" stroke="#263238" stroke-miterlimit="10" stroke-linecap="round" stroke-linejoin="round"/>
<path d="M933.223 39.0617C933.223 39.0617 952.984 0.89114 960.716 1.06308C968.449 1.40696 968.449 14.6463 968.449 14.6463C968.449 14.6463 983.399 3.29829 985.461 7.76872C987.351 12.2391 987.351 12.2391 987.351 12.2391C987.351 12.2391 1023.09 21.3519 1036.84 38.202C1050.76 55.0521 1057.46 73.2777 1051.1 86.6889C1046.29 97.0053 1038.21 125.547 1034.78 138.099C1031 139.646 1026.87 141.022 1022.92 141.366C1005.74 143.257 989.069 127.954 989.069 127.954C989.069 127.954 999.036 121.249 995.427 106.462C991.991 91.5032 981.681 91.3313 981.681 91.3313C981.681 91.3313 976.354 103.023 968.105 101.132C959.857 99.0686 973.432 86.8609 973.948 80.3272C974.635 73.7935 966.387 67.4317 963.981 63.6491C961.576 59.8664 974.12 57.4592 978.244 53.6766C982.196 49.8939 953.671 45.7673 947.485 43.7041C941.127 41.8127 952.984 40.7811 958.311 35.451C963.638 30.1209 933.223 39.0617 933.223 39.0617Z" fill="#263238" stroke="#263238" stroke-miterlimit="10" stroke-linecap="round" stroke-linejoin="round"/>
<path d="M930.304 88.2363C930.132 91.6751 931.163 94.598 932.71 94.77C934.256 94.77 935.631 92.019 935.803 88.5802C935.974 85.1414 934.943 82.2184 933.397 82.0465C931.85 81.8745 930.476 84.6256 930.304 88.2363Z" fill="#263238"/>
<path d="M940.786 74.8252C940.786 74.8252 933.568 59.1787 925.148 69.3231" stroke="#263238" stroke-miterlimit="10" stroke-linecap="round" stroke-linejoin="round"/>
<path d="M989.415 127.782L977.387 128.126L977.043 137.755" stroke="#263238" stroke-miterlimit="10" stroke-linecap="round" stroke-linejoin="round"/>
<path d="M965.701 201.888C965.701 201.888 955.906 211.173 954.703 216.675C953.5 222.177 952.813 227.164 952.813 227.164C952.813 227.164 934.942 251.751 933.224 265.162C931.333 278.745 936.832 308.147 936.832 308.147L972.402 202.576L965.701 201.888Z" fill="#263238" stroke="#263238" stroke-miterlimit="10" stroke-linecap="round" stroke-linejoin="round"/>
<path d="M1039.42 141.709C1039.42 141.709 966.047 194.151 965.531 195.698C965.187 197.246 964.672 212.377 964.672 212.377L1049.39 156.324L1039.42 141.709Z" fill="white" stroke="#263238" stroke-miterlimit="10" stroke-linecap="round" stroke-linejoin="round"/>
<path d="M964.84 212.377C964.84 212.377 944.564 247.796 943.533 253.126C942.33 258.628 930.301 335.485 930.301 335.485L915.18 430.052H1105.92C1105.92 430.052 1101.79 391.366 1099.39 359.901C1096.98 328.436 1095.95 282.012 1084.44 240.747C1078.08 217.535 1049.38 156.324 1049.38 156.324L964.84 212.377Z" fill="#016A4D"/>
<path d="M872.736 327.06C872.736 327.06 862.769 309.351 860.707 306.943C858.645 304.536 848.679 300.926 845.929 299.894C843.18 298.862 819.81 291.125 818.435 291.125C817.061 291.125 815.342 294.22 815.686 297.831C816.03 301.441 822.044 305.568 823.419 305.912C824.793 306.256 805.376 306.256 798.674 306.943C791.973 307.631 779.257 310.038 778.226 312.961C777.195 315.712 778.226 318.635 782.178 318.979C786.13 319.323 793.519 318.291 793.519 318.291L811.906 320.011C811.906 320.011 788.192 323.622 784.755 324.309C781.147 324.997 779.085 329.639 780.803 332.047C782.522 334.454 792.832 333.078 792.832 333.078L810.187 332.047C810.187 332.047 787.505 339.096 786.474 340.472C785.443 341.847 786.13 346.146 789.223 346.833C792.316 347.521 807.266 345.802 807.266 345.802L814.655 346.833C814.655 346.833 804.001 348.209 804.001 349.584C804.001 350.96 804.001 353.195 806.407 353.195C808.813 353.195 825.137 352.851 825.137 352.851C825.137 352.851 832.526 357.15 838.884 356.806C845.242 356.462 871.361 353.195 871.361 353.195L872.736 327.06Z" fill="white" stroke="#263238" stroke-miterlimit="10" stroke-linecap="round" stroke-linejoin="round"/>
<path d="M823.246 305.74L834.415 311.242C834.415 311.242 834.415 321.902 844.21 328.952" stroke="#263238" stroke-miterlimit="10" stroke-linecap="round" stroke-linejoin="round"/>
<path d="M811.391 317.088C811.391 317.088 813.796 338.924 815.515 344.254" stroke="#263238" stroke-miterlimit="10" stroke-linecap="round" stroke-linejoin="round"/>
<path d="M937.001 331.187L888.543 328.608V355.43L930.815 361.276L937.001 331.187Z" fill="#016A4D"/>
<path d="M888.543 328.608L872.734 326.544L871.188 353.367L888.543 355.43V328.608Z" fill="white" stroke="#263238" stroke-miterlimit="10" stroke-linecap="round" stroke-linejoin="round"/>
<path d="M1027.56 216.503C1027.56 216.503 1012.96 206.015 1004.19 207.734C995.429 209.454 969.825 218.223 963.983 229.915C958.14 241.606 922.57 347.865 922.57 347.865L787.335 337.893L782.352 386.723C782.352 386.723 927.897 417.329 939.582 419.048C951.267 420.767 964.155 420.767 969.997 414.921C975.839 409.076 1037.01 277.198 1037.01 277.198" fill="#016A4D"/>
<path d="M787.334 337.892L765.339 334.798L763.449 376.579L782.695 379.33L787.334 337.892Z" fill="white" stroke="#263238" stroke-miterlimit="10" stroke-linecap="round" stroke-linejoin="round"/>
<path d="M765.34 334.798C765.34 334.798 754.17 320.527 751.937 314.853C749.703 309.007 737.674 308.319 732.347 306.771C727.02 305.224 719.288 302.129 718.428 304.88C717.741 307.631 717.226 313.305 720.319 315.712C723.412 317.948 730.629 319.495 732.691 321.042C734.581 322.59 736.471 324.137 736.471 324.137L701.417 327.576C701.417 327.576 685.264 325.341 677.875 327.576C670.486 329.811 664.816 329.811 664.472 332.906C664.128 336.001 664.816 340.3 666.706 340.644C668.596 340.987 674.782 340.3 675.985 340.3C675.985 340.3 671.689 344.598 672.204 346.146C672.72 347.693 675.298 351.992 676.844 351.992C678.391 351.992 688.013 352.679 689.56 353.195C691.107 353.711 697.98 360.588 699.526 361.276C701.073 361.964 711.899 365.919 711.899 365.919C711.899 365.919 715.679 369.014 723.412 370.905C731.144 372.796 763.45 376.923 763.45 376.923L765.34 334.798Z" fill="white" stroke="#263238" stroke-miterlimit="10" stroke-linecap="round" stroke-linejoin="round"/>
<path d="M712.07 364.543C712.07 364.543 716.023 365.231 720.318 365.918" stroke="#263238" stroke-miterlimit="10" stroke-linecap="round" stroke-linejoin="round"/>
<path d="M675.984 340.128L694.886 339.44L713.445 341.331" stroke="#263238" stroke-miterlimit="10" stroke-linecap="round" stroke-linejoin="round"/>
<path d="M689.559 352.851L699.869 353.539L716.021 354.399" stroke="#263238" stroke-miterlimit="10" stroke-linecap="round" stroke-linejoin="round"/>
<path d="M1142.87 430.396L1153.69 322.934C1155.24 307.803 1143.55 294.564 1128.43 294.048C1115.03 293.532 1103.34 303.333 1101.45 316.744L1085.3 430.568H1142.87V430.396Z" fill="#263238" stroke="#263238" stroke-miterlimit="10" stroke-linecap="round" stroke-linejoin="round"/>
<path d="M302.413 135.348C302.413 135.348 231.96 173.175 229.038 176.269C225.945 179.364 208.59 404.433 208.59 404.433L422.182 375.547C422.182 375.547 444.349 276.682 448.302 236.792C452.426 196.902 451.223 167.501 450.02 164.062C448.817 160.623 416.856 144.289 409.467 140.678C402.078 137.239 390.908 132.941 390.908 132.941L302.413 135.348Z" fill="#016A4D"/>
<path d="M400.186 286.999C382.831 304.88 343.652 342.879 308.598 360.589" stroke="#263238" stroke-miterlimit="10" stroke-linecap="round" stroke-linejoin="round"/>
<path d="M409.295 277.37C409.295 277.37 407.062 279.777 403.109 283.904" stroke="#263238" stroke-miterlimit="10" stroke-linecap="round" stroke-linejoin="round"/>
<path d="M297.087 351.476C291.932 353.883 287.464 355.602 284.027 356.118" stroke="#263238" stroke-miterlimit="10" stroke-linecap="round" stroke-linejoin="round"/>
<path d="M344.511 323.793C344.511 323.793 323.719 337.721 305.332 347.521" stroke="#263238" stroke-miterlimit="10" stroke-linecap="round" stroke-linejoin="round"/>
<path d="M309.973 377.611C309.973 377.611 261 353.367 254.985 351.132C248.971 348.897 224.57 376.407 224.57 376.407L322.861 399.275L309.973 377.611Z" fill="white" stroke="#263238" stroke-miterlimit="10" stroke-linecap="round" stroke-linejoin="round"/>
<path d="M235.223 379.33C235.223 379.33 250.688 358.181 258.249 355.258" stroke="#263238" stroke-miterlimit="10" stroke-linecap="round" stroke-linejoin="round"/>
<path d="M250.004 381.565C250.004 381.565 263.235 362.652 267.875 359.041" stroke="#263238" stroke-miterlimit="10" stroke-linecap="round" stroke-linejoin="round"/>
<path d="M261.859 383.972C261.859 383.972 271.482 366.95 276.981 363.683" stroke="#263238" stroke-miterlimit="10" stroke-linecap="round" stroke-linejoin="round"/>
<path d="M269.934 385.864C269.934 385.864 275.776 381.393 277.838 382.081C280.072 382.769 289.867 389.646 291.585 390.85" stroke="#263238" stroke-miterlimit="10" stroke-linecap="round" stroke-linejoin="round"/>
<path d="M450.019 164.062C450.019 164.062 446.754 176.957 438.334 201.717C429.914 226.476 423.557 238.34 423.557 238.34L404.139 356.634L309.973 377.611L322.86 399.275C322.86 399.275 376.989 404.089 404.139 397.384C431.289 390.678 443.146 387.067 444.521 383.972C445.895 380.878 458.267 314.165 457.58 269.289C457.065 224.413 455.862 160.795 450.019 164.062Z" fill="#016A4D"/>
<path d="M423.383 238.34L451.908 196.042" stroke="#263238" stroke-miterlimit="10" stroke-linecap="round" stroke-linejoin="round"/>
<path d="M430.43 236.792L449.504 211.517" stroke="#263238" stroke-miterlimit="10" stroke-linecap="round" stroke-linejoin="round"/>
<path d="M409.293 355.087C409.293 355.087 429.054 353.711 438.505 364.887" stroke="#263238" stroke-miterlimit="10" stroke-linecap="round" stroke-linejoin="round"/>
<path d="M320.109 375.375L334.887 399.103" stroke="#263238" stroke-miterlimit="10" stroke-linecap="round" stroke-linejoin="round"/>
<path d="M408.434 350.1C408.434 350.1 418.056 342.879 434.725 347.177" stroke="#263238" stroke-miterlimit="10" stroke-linecap="round" stroke-linejoin="round"/>
<path d="M370.116 397.9L395.376 400.651L390.736 437.962L364.273 436.586L370.116 397.9Z" fill="white" stroke="#263238" stroke-miterlimit="10" stroke-linecap="round" stroke-linejoin="round"/>
<path d="M246.739 166.469C246.739 166.469 206.873 183.663 204.639 192.26C202.577 200.857 179.379 293.704 169.928 342.363C160.477 391.022 157.04 424.894 160.133 426.957C163.226 429.021 213.918 437.274 274.92 439.681C335.922 442.088 361.354 442.948 363.931 440.369C366.509 437.618 371.32 399.963 369.774 397.9C368.399 395.836 231.789 372.624 231.789 372.624C231.789 372.624 267.015 253.986 267.015 249.344C267.015 244.701 248.973 213.065 241.927 204.296" fill="#016A4D"/>
<path d="M232.132 372.624C232.132 372.624 208.762 369.358 192.094 386.895" stroke="#263238" stroke-miterlimit="10" stroke-linecap="round" stroke-linejoin="round"/>
<path d="M192.095 377.267C192.095 377.267 181.613 387.755 179.035 397.384" stroke="#263238" stroke-miterlimit="10" stroke-linecap="round" stroke-linejoin="round"/>
<path d="M395.378 400.651C395.378 400.651 448.132 382.941 451.74 385.348C455.349 387.755 475.625 405.121 475.969 407.7C476.141 410.279 475.625 416.641 473.563 417.673C471.501 418.532 467.893 419.564 467.893 419.564C467.893 419.564 462.222 438.649 459.988 440.369C457.583 442.26 450.709 443.807 447.444 444.323C444.179 444.839 390.738 437.961 390.738 437.961L395.378 400.651Z" fill="white" stroke="#263238" stroke-miterlimit="10" stroke-linecap="round" stroke-linejoin="round"/>
<path d="M467.894 419.564C467.894 419.564 463.426 411.999 461.192 410.967C458.958 409.763 446.414 405.293 446.414 405.293" stroke="#263238" stroke-miterlimit="10" stroke-linecap="round" stroke-linejoin="round"/>
<path d="M444.695 419.392C444.695 419.392 459.473 422.143 464.113 427.473" stroke="#263238" stroke-miterlimit="10" stroke-linecap="round" stroke-linejoin="round"/>
<path d="M443.492 432.975C443.492 432.975 455.864 437.446 462.394 435.898" stroke="#263238" stroke-miterlimit="10" stroke-linecap="round" stroke-linejoin="round"/>
<path d="M331.455 202.748L345.374 226.476L323.551 389.818L339.016 416.469L368.228 386.551L351.56 226.648L367.885 196.386L349.842 182.287L331.455 202.748Z" fill="white" stroke="#263238" stroke-miterlimit="10" stroke-linecap="round" stroke-linejoin="round"/>
<path d="M311.521 125.032L298.805 132.081C298.805 132.081 298.633 156.84 305.335 178.677C312.036 200.513 318.051 215.3 318.051 215.3L350.872 197.59L383.177 217.879C383.177 217.879 387.645 194.667 385.582 173.347C383.52 152.026 374.585 128.642 374.585 128.642C374.585 128.642 329.048 116.607 311.521 125.032Z" fill="#25A581" stroke="#263238" stroke-miterlimit="10" stroke-linecap="round" stroke-linejoin="round"/>
<path d="M323.723 157.872C323.723 157.872 329.565 171.283 333.517 177.989C337.47 184.694 350.873 197.762 350.873 197.762C350.873 197.762 364.276 177.473 366.854 174.034C369.431 170.423 369.431 170.423 369.431 170.423C369.431 170.423 352.076 172.143 348.295 170.939C344.515 169.736 323.723 157.872 323.723 157.872Z" fill="#263238" stroke="#263238" stroke-miterlimit="10" stroke-linecap="round" stroke-linejoin="round"/>
<path d="M402.765 78.0921C402.765 78.0921 396.063 113.34 396.063 117.982C396.235 122.624 399.156 137.067 397.094 142.397C395.032 147.9 371.663 171.455 364.445 177.129C357.056 182.803 346.574 182.287 340.904 177.473C335.233 172.659 315.816 152.026 312.723 146.18C309.458 140.334 306.021 124.688 306.021 124.688C306.021 124.688 296.742 120.045 291.243 110.933C285.744 101.82 282.823 95.458 290.384 91.1595L286.947 52.3012C286.947 52.3012 299.835 39.2338 330.078 41.6409C360.493 44.0481 402.765 78.0921 402.765 78.0921Z" fill="white" stroke="#263238" stroke-miterlimit="10" stroke-linecap="round" stroke-linejoin="round"/>
<path d="M303.271 99.0686L310.488 116.263L314.784 116.778L312.55 103.711C312.55 103.711 329.734 94.5982 330.593 93.7385C331.452 93.0508 326.813 71.3864 326.641 69.3231C326.469 67.2598 327.672 60.2103 352.073 67.4318C376.302 74.6532 377.161 83.4221 389.189 85.6574C401.218 87.7206 402.421 83.0783 402.421 83.0783C402.421 83.0783 415.48 86.1732 422.698 76.3726C429.915 66.5721 408.607 55.2241 408.607 55.2241C408.607 55.2241 412.044 36.9985 403.452 28.9173C394.86 20.8362 387.127 28.9173 387.127 29.949C387.127 31.1525 355.853 8.97235 340.388 8.11265C324.923 7.08102 289.868 30.8087 283.854 42.8444C277.839 54.8802 290.555 91.3314 290.555 91.3314C290.555 91.3314 298.288 88.2365 303.271 99.0686Z" fill="#263238" stroke="#263238" stroke-miterlimit="10" stroke-linecap="round" stroke-linejoin="round"/>
<path d="M376.646 119.701L377.161 146.18L363.93 144.461" stroke="#263238" stroke-miterlimit="10" stroke-linecap="round" stroke-linejoin="round"/>
<path d="M350.527 150.65C350.527 150.65 361.525 159.247 373.21 154.261" stroke="#263238" stroke-miterlimit="10" stroke-linecap="round" stroke-linejoin="round"/>
<path d="M358.945 116.091C358.945 116.091 355.165 123.656 342.105 118.498" stroke="#263238" stroke-miterlimit="10" stroke-linecap="round" stroke-linejoin="round"/>
<path d="M380.598 114.027C380.598 114.027 386.268 117.81 392.283 113.168" stroke="#263238" stroke-miterlimit="10" stroke-linecap="round" stroke-linejoin="round"/>
<path d="M328.188 112.48C328.188 112.48 343.825 107.666 372.521 107.494C372.521 107.494 369.944 115.059 367.366 121.421C364.789 127.954 363.929 132.941 353.276 135.176C342.622 137.411 333.858 133.285 332.14 129.33C330.421 125.375 328.188 112.48 328.188 112.48Z" stroke="#263238" stroke-miterlimit="10" stroke-linecap="round" stroke-linejoin="round"/>
<path d="M372.52 107.322C372.52 107.322 399.842 101.304 407.746 99.9282C407.746 99.9282 407.918 108.009 405.856 113.855C403.794 119.701 399.498 125.203 395.374 126.751C391.25 128.298 381.971 130.705 379.565 126.407C378.362 124.516 372.52 107.322 372.52 107.322Z" stroke="#263238" stroke-miterlimit="10" stroke-linecap="round" stroke-linejoin="round"/>
<path d="M407.748 100.1L399.5 92.7068" stroke="#263238" stroke-miterlimit="10" stroke-linecap="round" stroke-linejoin="round"/>
<path d="M328.186 112.48L303.27 99.0686" stroke="#263238" stroke-miterlimit="10" stroke-linecap="round" stroke-linejoin="round"/>
<path d="M337.98 106.634C337.98 106.634 348.291 102.163 361.866 103.883" stroke="#263238" stroke-miterlimit="10" stroke-linecap="round" stroke-linejoin="round"/>
<path d="M379.91 102.679C379.91 102.679 383.862 96.4896 395.891 98.209" stroke="#263238" stroke-miterlimit="10" stroke-linecap="round" stroke-linejoin="round"/>
<path d="M844.729 471.489L803.145 450.513H987.869L1041.48 471.489H844.729Z" fill="white" stroke="#263238" stroke-miterlimit="10" stroke-linecap="round"/>
<path d="M864.832 470.802L829.262 452.748H987.351L1033.23 470.802H864.832Z" fill="white" stroke="#263238" stroke-miterlimit="10" stroke-linecap="round"/>
<path d="M844.73 471.489H1041.48L1068.29 344.77H871.537L844.73 471.489Z" fill="white" stroke="#263238" stroke-miterlimit="10" stroke-linecap="round"/>
<path d="M948.004 404.261C943.02 409.247 942.677 416.813 947.145 421.455C951.612 425.925 959.345 425.581 964.328 420.767C969.311 415.781 969.655 408.216 965.187 403.573C960.72 399.103 952.987 399.275 948.004 404.261Z" fill="white" stroke="#263238" stroke-miterlimit="10" stroke-linecap="round"/>
<path d="M575.118 436.586L490.23 474.756L644.024 483.353L714.133 439.165L575.118 436.586Z" fill="white" stroke="#263238" stroke-miterlimit="10" stroke-linecap="round" stroke-linejoin="round"/>
<path d="M587.319 437.445L513.602 485.932L670.488 499.344L695.061 438.305L587.319 437.445Z" fill="white" stroke="#263238" stroke-miterlimit="10" stroke-linecap="round" stroke-linejoin="round"/>
<path d="M333.687 409.247C333.687 402.542 335.405 396.524 338.155 391.882H192.438C183.158 391.882 175.426 399.447 175.426 408.904C175.426 418.188 182.987 425.926 192.438 425.926H337.468C335.234 421.111 333.687 415.437 333.687 409.247Z" fill="white" stroke="#263238" stroke-miterlimit="10" stroke-linecap="round"/>
<path d="M337.639 428.677H192.609C181.611 428.677 172.676 419.736 172.676 408.732C172.676 397.727 181.611 388.787 192.609 388.787H338.326C340.044 388.787 341.247 390.162 341.247 391.71C341.247 393.429 339.873 394.633 338.326 394.633H192.609C184.876 394.633 178.69 400.822 178.69 408.56C178.69 416.297 184.876 422.487 192.609 422.487H337.639C339.357 422.487 340.56 423.862 340.56 425.41C340.732 427.473 339.357 428.677 337.639 428.677Z" fill="#8C8C8C" stroke="#263238" stroke-miterlimit="10" stroke-linecap="round"/>
<path d="M318.05 391.882C315.3 396.696 313.582 402.714 313.582 409.247C313.582 415.437 315.129 421.111 317.534 425.754H337.811C335.405 421.111 333.859 415.437 333.859 409.247C333.859 402.542 335.577 396.524 338.326 391.882H318.05Z" fill="white" stroke="#263238" stroke-miterlimit="10" stroke-linecap="round"/>
<path d="M337.812 448.794C337.812 442.088 339.53 436.07 342.28 431.428H196.563C187.283 431.428 179.551 438.993 179.551 448.45C179.551 457.734 187.112 465.472 196.563 465.472H341.593C339.359 460.657 337.812 454.983 337.812 448.794Z" fill="white" stroke="#263238" stroke-miterlimit="10" stroke-linecap="round"/>
<path d="M341.764 468.223H196.734C185.736 468.223 176.801 459.282 176.801 448.278C176.801 437.274 185.736 428.333 196.734 428.333H342.451C344.169 428.333 345.372 429.708 345.372 431.256C345.372 432.975 343.998 434.179 342.451 434.179H196.734C189.001 434.179 182.815 440.369 182.815 448.106C182.815 455.843 189.001 462.033 196.734 462.033H341.764C343.482 462.033 344.685 463.408 344.685 464.956C344.857 466.847 343.482 468.223 341.764 468.223Z" fill="#92E3A9" stroke="#263238" stroke-miterlimit="10" stroke-linecap="round"/>
<path d="M322.175 431.428C319.425 436.242 317.707 442.26 317.707 448.794C317.707 454.983 319.254 460.657 321.659 465.3H341.936C339.53 460.657 337.984 454.983 337.984 448.794C337.984 442.088 339.702 436.07 342.451 431.428H322.175Z" fill="white" stroke="#263238" stroke-miterlimit="10" stroke-linecap="round"/>
</svg>
