<svg width="175" height="82" viewBox="0 0 175 82" fill="none" xmlns="http://www.w3.org/2000/svg">
<path d="M162.315 21.7604C162.315 15.0548 164.034 9.0369 166.783 4.39453H21.0659C11.7867 4.39453 4.05408 11.9599 4.05408 21.4165C4.05408 30.7013 11.6149 38.4386 21.0659 38.4386H166.096C163.862 33.6242 162.315 27.9502 162.315 21.7604Z" fill="white" stroke="#263238" stroke-miterlimit="10" stroke-linecap="round"/>
<path d="M166.268 41.1888H21.2377C10.2402 41.1888 1.30469 32.2479 1.30469 21.2438C1.30469 10.2397 10.2402 1.29883 21.2377 1.29883H166.955C168.673 1.29883 169.876 2.67434 169.876 4.22179C169.876 5.94119 168.502 7.14476 166.955 7.14476H21.2377C13.5051 7.14476 7.31896 13.3346 7.31896 21.0719C7.31896 28.8091 13.5051 34.999 21.2377 34.999H166.268C167.986 34.999 169.189 36.3745 169.189 37.9219C169.361 39.9852 167.986 41.1888 166.268 41.1888Z" fill="#8C8C8C" stroke="#263238" stroke-miterlimit="10" stroke-linecap="round"/>
<path d="M146.678 4.39453C143.929 9.20884 142.211 15.2267 142.211 21.7604C142.211 27.9502 143.757 33.6242 146.163 38.2666H166.439C164.034 33.6242 162.487 27.9502 162.487 21.7604C162.487 15.0548 164.206 9.0369 166.955 4.39453H146.678Z" fill="white" stroke="#263238" stroke-miterlimit="10" stroke-linecap="round"/>
<path d="M166.439 61.3073C166.439 54.6016 168.158 48.5838 170.907 43.9414H25.19C15.9108 43.9414 8.17815 51.5068 8.17815 60.9634C8.17815 70.2482 15.739 77.9854 25.19 77.9854H170.22C167.986 73.1711 166.439 67.4971 166.439 61.3073Z" fill="white" stroke="#263238" stroke-miterlimit="10" stroke-linecap="round"/>
<path d="M170.392 80.7357H25.3618C14.3643 80.7357 5.42877 71.7948 5.42877 60.7907C5.42877 49.7866 14.3643 40.8457 25.3618 40.8457H171.079C172.797 40.8457 174 42.2212 174 43.7687C174 45.4881 172.626 46.6916 171.079 46.6916H25.3618C17.6292 46.6916 11.443 52.8815 11.443 60.6187C11.443 68.356 17.6292 74.5459 25.3618 74.5459H170.392C172.11 74.5459 173.313 75.9213 173.313 77.4688C173.485 79.3601 172.11 80.7357 170.392 80.7357Z" fill="#92E3A9" stroke="#263238" stroke-miterlimit="10" stroke-linecap="round"/>
<path d="M150.802 43.9414C148.053 48.7557 146.335 54.7736 146.335 61.3073C146.335 67.4971 147.881 73.1711 150.287 77.8135H170.564C168.158 73.1711 166.611 67.4971 166.611 61.3073C166.611 54.6016 168.33 48.5838 171.079 43.9414H150.802Z" fill="white" stroke="#263238" stroke-miterlimit="10" stroke-linecap="round"/>
</svg>
