<svg width="319" height="438" viewBox="0 0 319 438" fill="none" xmlns="http://www.w3.org/2000/svg">
<path d="M144.043 127.86C144.043 127.86 73.5897 165.687 70.6684 168.782C67.5754 171.877 50.2199 396.946 50.2199 396.946L263.813 368.06C263.813 368.06 285.979 269.195 289.932 229.305C294.056 189.415 292.853 160.013 291.65 156.574C290.447 153.135 258.486 136.801 251.097 133.19C243.708 129.752 232.538 125.453 232.538 125.453L144.043 127.86Z" fill="#016A4D"/>
<path d="M241.818 279.512C224.462 297.393 185.283 335.392 150.229 353.102" stroke="#263238" stroke-miterlimit="10" stroke-linecap="round" stroke-linejoin="round"/>
<path d="M250.925 269.883C250.925 269.883 248.691 272.29 244.739 276.417" stroke="#263238" stroke-miterlimit="10" stroke-linecap="round" stroke-linejoin="round"/>
<path d="M138.716 343.988C133.561 346.395 129.093 348.115 125.656 348.631" stroke="#263238" stroke-miterlimit="10" stroke-linecap="round" stroke-linejoin="round"/>
<path d="M186.143 316.307C186.143 316.307 165.35 330.234 146.964 340.034" stroke="#263238" stroke-miterlimit="10" stroke-linecap="round" stroke-linejoin="round"/>
<path d="M151.603 370.122C151.603 370.122 102.63 345.878 96.6157 343.643C90.6015 341.408 66.2007 368.918 66.2007 368.918L164.491 391.786L151.603 370.122Z" fill="white" stroke="#263238" stroke-miterlimit="10" stroke-linecap="round" stroke-linejoin="round"/>
<path d="M76.8546 371.841C76.8546 371.841 92.3198 350.693 99.8806 347.77" stroke="#263238" stroke-miterlimit="10" stroke-linecap="round" stroke-linejoin="round"/>
<path d="M91.6325 374.077C91.6325 374.077 104.864 355.163 109.503 351.553" stroke="#263238" stroke-miterlimit="10" stroke-linecap="round" stroke-linejoin="round"/>
<path d="M103.489 376.484C103.489 376.484 113.112 359.462 118.611 356.195" stroke="#263238" stroke-miterlimit="10" stroke-linecap="round" stroke-linejoin="round"/>
<path d="M111.566 378.374C111.566 378.374 117.408 373.904 119.47 374.591C121.704 375.279 131.499 382.157 133.217 383.36" stroke="#263238" stroke-miterlimit="10" stroke-linecap="round" stroke-linejoin="round"/>
<path d="M291.65 156.574C291.65 156.574 288.385 169.47 279.965 194.229C271.545 218.988 265.187 230.852 265.187 230.852L245.77 349.146L151.603 370.123L164.491 391.787C164.491 391.787 218.62 396.602 245.77 389.896C272.92 383.19 284.777 379.58 286.151 376.485C287.526 373.39 299.898 306.677 299.211 261.801C298.695 216.925 297.492 153.307 291.65 156.574Z" fill="#016A4D"/>
<path d="M265.015 230.852L293.54 188.555" stroke="#263238" stroke-miterlimit="10" stroke-linecap="round" stroke-linejoin="round"/>
<path d="M272.061 229.304L291.135 204.029" stroke="#263238" stroke-miterlimit="10" stroke-linecap="round" stroke-linejoin="round"/>
<path d="M250.925 347.599C250.925 347.599 270.686 346.223 280.137 357.399" stroke="#263238" stroke-miterlimit="10" stroke-linecap="round" stroke-linejoin="round"/>
<path d="M161.742 367.887L176.52 391.614" stroke="#263238" stroke-miterlimit="10" stroke-linecap="round" stroke-linejoin="round"/>
<path d="M250.066 342.613C250.066 342.613 259.688 335.392 276.357 339.69" stroke="#263238" stroke-miterlimit="10" stroke-linecap="round" stroke-linejoin="round"/>
<path d="M211.746 390.41L237.006 393.161L232.367 430.472L205.904 429.097L211.746 390.41Z" fill="white" stroke="#263238" stroke-miterlimit="10" stroke-linecap="round" stroke-linejoin="round"/>
<path d="M88.3676 158.98C88.3676 158.98 48.5015 176.174 46.2677 184.771C44.2056 193.368 21.0077 286.216 11.5567 334.875C2.10571 383.533 -1.33101 417.406 1.76205 419.469C4.8551 421.532 55.5468 429.785 116.549 432.192C177.551 434.599 202.982 435.459 205.56 432.88C208.138 430.129 212.949 392.474 211.402 390.411C210.028 388.348 73.4178 365.136 73.4178 365.136C73.4178 365.136 108.644 246.498 108.644 241.855C108.644 237.213 90.6015 205.576 83.5562 196.807" fill="#016A4D"/>
<path d="M73.7615 365.135C73.7615 365.135 50.3917 361.868 33.7236 379.406" stroke="#263238" stroke-miterlimit="10" stroke-linecap="round" stroke-linejoin="round"/>
<path d="M33.7236 369.777C33.7236 369.777 23.2416 380.266 20.664 389.894" stroke="#263238" stroke-miterlimit="10" stroke-linecap="round" stroke-linejoin="round"/>
<path d="M237.006 393.162C237.006 393.162 289.76 375.453 293.368 377.86C296.977 380.267 317.254 397.633 317.597 400.212C317.769 402.791 317.254 409.153 315.192 410.184C313.13 411.044 309.521 412.076 309.521 412.076C309.521 412.076 303.85 431.161 301.617 432.88C299.211 434.772 292.337 436.319 289.073 436.835C285.808 437.351 232.367 430.473 232.367 430.473L237.006 393.162Z" fill="white" stroke="#263238" stroke-miterlimit="10" stroke-linecap="round" stroke-linejoin="round"/>
<path d="M309.521 412.076C309.521 412.076 305.053 404.51 302.819 403.479C300.586 402.275 288.041 397.805 288.041 397.805" stroke="#263238" stroke-miterlimit="10" stroke-linecap="round" stroke-linejoin="round"/>
<path d="M286.323 411.904C286.323 411.904 301.101 414.655 305.741 419.985" stroke="#263238" stroke-miterlimit="10" stroke-linecap="round" stroke-linejoin="round"/>
<path d="M285.12 425.486C285.12 425.486 297.492 429.957 304.022 428.409" stroke="#263238" stroke-miterlimit="10" stroke-linecap="round" stroke-linejoin="round"/>
<path d="M173.083 195.26L187.002 218.987L165.178 382.33L180.644 408.98L209.856 379.063L193.188 219.159L209.512 188.898L191.469 174.799L173.083 195.26Z" fill="white" stroke="#263238" stroke-miterlimit="10" stroke-linecap="round" stroke-linejoin="round"/>
<path d="M153.15 117.544L140.434 124.594C140.434 124.594 140.262 149.353 146.964 171.189C153.665 193.025 159.68 207.812 159.68 207.812L192.5 190.103L224.806 210.391C224.806 210.391 229.273 187.18 227.211 165.859C225.149 144.539 216.214 121.155 216.214 121.155C216.214 121.155 170.677 109.119 153.15 117.544Z" fill="#25A581" stroke="#263238" stroke-miterlimit="10" stroke-linecap="round" stroke-linejoin="round"/>
<path d="M165.35 150.383C165.35 150.383 171.193 163.794 175.145 170.5C179.097 177.205 192.5 190.273 192.5 190.273C192.5 190.273 205.904 169.984 208.481 166.545C211.059 162.934 211.059 162.934 211.059 162.934C211.059 162.934 193.703 164.654 189.923 163.45C186.142 162.247 165.35 150.383 165.35 150.383Z" fill="#263238" stroke="#263238" stroke-miterlimit="10" stroke-linecap="round" stroke-linejoin="round"/>
<path d="M244.395 70.6036C244.395 70.6036 237.693 105.851 237.693 110.494C237.865 115.136 240.786 129.579 238.724 134.909C236.662 140.411 213.293 163.967 206.076 169.641C198.687 175.315 188.205 174.799 182.534 169.985C176.863 165.17 157.446 144.538 154.353 138.692C151.088 132.846 147.651 117.199 147.651 117.199C147.651 117.199 138.372 112.557 132.873 103.444C127.374 94.3312 124.453 87.9695 132.014 83.671L128.577 44.8127C128.577 44.8127 141.465 31.7453 171.708 34.1524C202.123 36.5596 244.395 70.6036 244.395 70.6036Z" fill="white" stroke="#263238" stroke-miterlimit="10" stroke-linecap="round" stroke-linejoin="round"/>
<path d="M144.902 91.5804L152.119 108.774L156.415 109.29L154.181 96.2227C154.181 96.2227 171.365 87.1099 172.224 86.2502C173.083 85.5625 168.443 63.8981 168.272 61.8348C168.1 59.7716 169.303 52.722 193.703 59.9435C217.932 67.1649 218.791 75.9339 230.82 78.1691C242.849 80.2324 244.051 75.59 244.051 75.59C244.051 75.59 257.111 78.6849 264.328 68.8843C271.545 59.0838 250.238 47.7358 250.238 47.7358C250.238 47.7358 253.674 29.5102 245.082 21.4291C236.491 13.3479 228.758 21.429 228.758 22.4607C228.758 23.6643 197.484 1.48407 182.018 0.624373C166.553 -0.407264 131.499 23.3204 125.484 35.3561C119.47 47.3919 132.186 83.8431 132.186 83.8431C132.186 83.8431 139.919 80.7482 144.902 91.5804Z" fill="#263238" stroke="#263238" stroke-miterlimit="10" stroke-linecap="round" stroke-linejoin="round"/>
<path d="M218.276 112.213L218.791 138.692L205.56 136.972" stroke="#263238" stroke-miterlimit="10" stroke-linecap="round" stroke-linejoin="round"/>
<path d="M192.157 143.162C192.157 143.162 203.154 151.759 214.839 146.773" stroke="#263238" stroke-miterlimit="10" stroke-linecap="round" stroke-linejoin="round"/>
<path d="M200.577 108.602C200.577 108.602 196.796 116.167 183.737 111.009" stroke="#263238" stroke-miterlimit="10" stroke-linecap="round" stroke-linejoin="round"/>
<path d="M222.228 106.539C222.228 106.539 227.899 110.322 233.913 105.68" stroke="#263238" stroke-miterlimit="10" stroke-linecap="round" stroke-linejoin="round"/>
<path d="M169.818 104.992C169.818 104.992 185.455 100.178 214.152 100.006C214.152 100.006 211.574 107.571 208.997 113.933C206.419 120.467 205.56 125.453 194.906 127.688C184.252 129.923 175.489 125.797 173.77 121.842C172.052 117.888 169.818 104.992 169.818 104.992Z" stroke="#263238" stroke-miterlimit="10" stroke-linecap="round" stroke-linejoin="round"/>
<path d="M214.152 99.8328C214.152 99.8328 241.474 93.815 249.378 92.4395C249.378 92.4395 249.55 100.521 247.488 106.367C245.426 112.212 241.13 117.715 237.006 119.262C232.882 120.809 223.603 123.217 221.197 118.918C219.994 117.027 214.152 99.8328 214.152 99.8328Z" stroke="#263238" stroke-miterlimit="10" stroke-linecap="round" stroke-linejoin="round"/>
<path d="M249.378 92.6121L241.13 85.2188" stroke="#263238" stroke-miterlimit="10" stroke-linecap="round" stroke-linejoin="round"/>
<path d="M169.818 104.991L144.902 91.5801" stroke="#263238" stroke-miterlimit="10" stroke-linecap="round" stroke-linejoin="round"/>
<path d="M179.613 99.1466C179.613 99.1466 189.923 94.6762 203.498 96.3956" stroke="#263238" stroke-miterlimit="10" stroke-linecap="round" stroke-linejoin="round"/>
<path d="M221.541 95.1901C221.541 95.1901 225.493 89.0003 237.522 90.7197" stroke="#263238" stroke-miterlimit="10" stroke-linecap="round" stroke-linejoin="round"/>
</svg>
