<svg width="330" height="426" viewBox="0 0 330 426" fill="none" xmlns="http://www.w3.org/2000/svg">
<path d="M64.883 192.572C64.883 192.572 61.2744 233.838 61.2744 236.245C61.2744 238.652 13.5039 352.648 9.72353 363.136C5.94313 373.625 -1.44584 393.913 1.13171 402.854C3.53742 411.795 17.1125 420.392 25.017 422.971C32.7496 425.55 48.3867 425.378 51.3079 424.863C54.2291 424.347 69.3507 424.519 69.3507 424.519L84.1287 389.099L71.0691 382.565L90.8303 325.481L82.754 256.706L64.883 192.572Z" fill="#263238" stroke="#263238" stroke-miterlimit="10" stroke-linecap="round" stroke-linejoin="round"/>
<path d="M70.8972 382.736C70.8972 382.736 40.1386 368.637 24.1578 369.325" stroke="white" stroke-miterlimit="10" stroke-linecap="round" stroke-linejoin="round"/>
<path d="M97.1883 372.076L93.236 420.563H305.282C297.721 376.547 297.721 342.159 297.721 342.159C297.721 342.159 308.375 256.533 308.375 246.388C308.375 236.244 316.452 207.014 314.561 202.028C312.499 197.042 267.822 183.459 248.576 176.581C229.33 169.703 201.837 163.686 201.837 163.686L151.66 169.188C151.66 169.188 92.7205 180.02 80.1765 182.083C67.6324 184.146 65.914 187.241 64.883 192.743C63.852 198.417 82.5822 257.049 82.5822 257.049L97.1883 372.076Z" fill="#263238" stroke="#263238" stroke-miterlimit="10" stroke-linecap="round" stroke-linejoin="round"/>
<path d="M145.131 199.622C145.131 199.622 149.083 226.273 154.238 248.281C159.393 270.289 173.484 302.958 173.484 302.958C173.484 302.958 207.851 247.077 213.006 221.286C218.161 195.324 219.708 187.414 219.708 187.414L145.474 186.727L145.131 199.622Z" fill="white" stroke="#263238" stroke-miterlimit="10" stroke-linecap="round" stroke-linejoin="round"/>
<path d="M153.035 151.822C153.035 151.822 145.99 169.531 142.381 176.409C138.773 183.286 118.324 212.516 119.355 214.751C120.558 217.159 130.868 213.892 133.618 212.688C136.367 211.313 149.083 206.498 149.083 206.498C149.083 206.498 146.333 212.516 147.536 214.408C148.739 216.299 167.641 233.837 167.641 233.837L182.591 234.009C182.591 234.009 184.997 231.086 187.746 228.679C190.495 226.271 209.054 214.408 213.865 211.141C218.677 207.874 219.02 199.105 219.02 199.105C219.02 199.105 243.421 212.344 244.624 207.702C245.827 202.888 239.469 197.214 233.111 180.879C226.753 164.545 224.519 153.885 219.364 146.148C214.209 138.41 212.319 138.066 212.319 138.066L153.035 151.822Z" fill="white" stroke="#263238" stroke-miterlimit="10" stroke-linecap="round" stroke-linejoin="round"/>
<path d="M158.19 161.966C158.19 161.966 159.737 205.467 160.08 212.86C160.424 220.425 175.889 254.125 178.639 249.655C181.388 245.185 199.259 211.656 204.758 199.277C210.257 186.897 212.319 161.794 213.178 156.636C214.037 151.478 214.724 128.094 214.724 128.094C214.724 128.094 194.104 159.387 185.856 164.029C177.608 168.671 158.19 161.966 158.19 161.966Z" fill="white" stroke="#263238" stroke-miterlimit="10" stroke-linecap="round" stroke-linejoin="round"/>
<path d="M183.966 173.487L159.221 188.789L158.19 161.967L183.966 173.487Z" fill="#263238" stroke="#263238" stroke-miterlimit="10" stroke-linecap="round" stroke-linejoin="round"/>
<path d="M84.1287 389.098C84.1287 389.098 130.868 395.116 134.305 394.944C137.742 394.772 152.348 403.369 157.675 407.151C163.002 411.106 173.484 420.047 173.484 420.047L119.011 421.25C119.011 421.25 112.825 419.875 109.56 420.047C106.296 420.219 101.828 422.798 92.3768 422.798C82.9258 422.798 72.272 418.155 72.272 418.155L84.1287 389.098Z" fill="white" stroke="#263238" stroke-miterlimit="10" stroke-linecap="round" stroke-linejoin="round"/>
<path d="M101.484 412.31C101.484 412.31 111.622 410.074 114.887 411.622C118.152 413.169 131.04 420.563 131.04 420.563" stroke="#263238" stroke-miterlimit="10" stroke-linecap="round" stroke-linejoin="round"/>
<path d="M109.732 404.916C109.732 404.916 125.198 404.744 127.775 405.604C130.353 406.464 146.162 420.391 146.162 420.391" stroke="#263238" stroke-miterlimit="10" stroke-linecap="round" stroke-linejoin="round"/>
<path d="M124.51 399.758C124.51 399.758 136.882 399.758 138.773 401.477C140.663 403.197 158.877 417.811 160.252 419.531" stroke="#263238" stroke-miterlimit="10" stroke-linecap="round" stroke-linejoin="round"/>
<path d="M245.827 403.541L237.75 385.659L256.824 383.424C256.824 383.424 258.543 398.383 245.827 403.541Z" fill="white" stroke="#263238" stroke-miterlimit="10" stroke-linecap="round" stroke-linejoin="round"/>
<path d="M279.507 238.308C279.507 238.308 253.559 271.32 253.044 279.401C252.528 287.482 264.213 354.711 264.213 354.711L241.359 360.213C241.359 360.213 247.373 376.203 247.373 385.316C247.373 394.429 245.827 403.714 245.827 403.714C245.827 403.714 291.02 412.654 303.22 411.279C315.42 409.731 319.029 405.089 326.59 394.085C334.151 383.081 325.043 364.683 321.091 354.711C316.967 344.738 318.514 339.58 318.514 339.58L307.001 235.385" fill="#263238"/>
<path d="M279.507 238.308C279.507 238.308 253.559 271.32 253.044 279.401C252.528 287.482 264.213 354.711 264.213 354.711L241.359 360.213C241.359 360.213 247.373 376.203 247.373 385.316C247.373 394.429 245.827 403.714 245.827 403.714C245.827 403.714 291.02 412.654 303.22 411.279C315.42 409.731 319.029 405.089 326.59 394.085C334.151 383.081 325.043 364.683 321.091 354.711C316.967 344.738 318.514 339.58 318.514 339.58L307.001 235.385" stroke="#263238" stroke-miterlimit="10" stroke-linecap="round" stroke-linejoin="round"/>
<path d="M264.213 354.711C264.213 354.711 291.535 348.522 308.375 348.006L264.213 354.711Z" fill="white"/>
<path d="M264.213 354.711C264.213 354.711 291.535 348.522 308.375 348.006" stroke="#263238" stroke-miterlimit="10" stroke-linecap="round" stroke-linejoin="round"/>
<path d="M178.639 322.043L171.078 280.262C171.078 280.262 127.26 282.325 107.842 283.357C88.4246 284.388 30.5157 282.669 30.5157 282.669C30.5157 282.669 63.852 370.702 66.7732 377.751C69.6944 384.801 72.1001 390.819 72.1001 390.819C72.1001 390.819 105.952 396.665 139.632 395.805C173.312 394.945 188.605 386.692 188.605 386.692L178.639 322.043Z" fill="white" stroke="#263238" stroke-miterlimit="10" stroke-linecap="round" stroke-linejoin="round"/>
<path d="M241.359 360.042L225.378 353.68C225.378 353.68 198.056 332.703 195.479 330.296C192.901 327.889 178.639 321.871 178.639 321.871L181.904 338.721C181.904 338.721 132.93 360.729 129.665 363.308C126.4 365.888 133.274 368.295 133.274 368.295C133.274 368.295 126.744 372.421 130.009 374.485C133.274 376.548 144.443 376.032 144.443 376.032C144.443 376.032 151.317 379.815 158.534 380.502C165.751 381.362 182.247 382.05 182.247 382.05C182.247 382.05 180.529 384.973 175.03 386.692C169.531 388.412 153.379 393.57 155.613 396.493C157.847 399.244 173.312 396.493 173.312 396.493C173.312 396.493 202.868 389.959 203.899 389.959C204.93 389.959 214.381 392.022 219.02 391.85C223.66 391.679 234.486 389.787 234.486 389.787L247.373 389.615C247.201 389.959 246.858 368.295 241.359 360.042Z" fill="white" stroke="#263238" stroke-miterlimit="10" stroke-linecap="round" stroke-linejoin="round"/>
<path d="M181.732 338.72L190.839 334.422" stroke="#263238" stroke-miterlimit="10" stroke-linecap="round" stroke-linejoin="round"/>
<path d="M133.274 368.295L182.419 352.133" stroke="#263238" stroke-miterlimit="10" stroke-linecap="round" stroke-linejoin="round"/>
<path d="M144.443 376.204L190.324 367.951" stroke="#263238" stroke-miterlimit="10" stroke-linecap="round" stroke-linejoin="round"/>
<path d="M182.075 382.393L195.135 381.533" stroke="#263238" stroke-miterlimit="10" stroke-linecap="round" stroke-linejoin="round"/>
<path d="M188.777 18.0532C188.777 18.0532 191.698 2.06286 196.682 1.03122C201.665 -0.000415564 233.111 2.40674 238.953 11.6915C244.796 21.1481 247.03 53.3008 244.108 56.7396C241.187 60.1784 223.316 63.4453 221.082 63.4453C219.02 63.4453 211.975 40.4054 200.634 31.6364C189.636 23.0395 188.777 18.0532 188.777 18.0532Z" fill="#263238" stroke="#263238" stroke-miterlimit="10" stroke-linecap="round" stroke-linejoin="round"/>
<path d="M133.789 23.0399C133.789 23.0399 120.042 29.7456 117.465 37.8267C114.887 45.9079 114.544 54.6768 114.544 54.6768C114.544 54.6768 97.0164 60.6947 99.0785 74.1059C101.14 87.3453 115.747 95.5984 116.949 96.4581C118.152 97.3178 130.696 117.607 130.696 117.607L131.899 100.413C131.899 100.413 131.04 97.4897 150.286 95.9423C169.531 94.3948 182.763 96.4581 188.262 94.9106C193.76 93.5351 195.822 93.0193 195.822 93.0193C195.822 93.0193 197.025 94.5667 202.868 97.8336C208.71 100.929 216.615 107.806 219.536 105.571C222.457 103.336 226.237 84.4223 226.237 84.4223C226.237 84.4223 228.815 52.2696 228.815 46.4237C228.815 40.5777 215.927 28.8859 212.49 26.1348C209.226 23.3838 181.732 11.8639 175.374 9.97252C169.188 8.08118 150.801 10.4883 143.756 14.9588C136.711 19.0853 133.789 23.0399 133.789 23.0399Z" fill="#263238" stroke="#263238" stroke-miterlimit="10" stroke-linecap="round" stroke-linejoin="round"/>
<path d="M123.995 92.6752C123.995 92.6752 135.68 132.737 136.882 140.99C137.913 148.212 146.677 155.261 151.489 160.075C156.472 165.062 173.827 183.803 181.044 176.926C185.684 172.627 203.039 155.605 208.023 148.727C213.006 141.85 214.037 131.705 215.755 125.516C217.474 119.154 217.474 119.154 217.474 119.154C217.474 119.154 225.894 113.824 227.097 106.774C228.299 99.5528 232.595 83.5624 226.237 84.2502C220.051 84.9379 219.536 94.9104 219.192 97.8334C218.848 100.756 215.412 98.0053 213.35 95.942C211.288 93.8788 205.789 93.7068 203.383 90.9558C200.806 88.2048 206.82 66.1965 203.899 67.9159C200.977 69.6353 198.915 85.2818 180.185 86.3134C161.455 87.517 148.567 84.594 148.567 84.594C148.567 84.594 139.804 98.3492 123.995 92.6752Z" fill="white" stroke="#263238" stroke-miterlimit="10" stroke-linecap="round" stroke-linejoin="round"/>
<path d="M165.235 108.493C165.235 108.493 128.806 107.118 127.775 108.149C126.744 109.181 130.181 122.076 133.274 126.203C136.367 130.158 152.176 129.642 156.987 127.407C161.799 125.171 165.235 108.493 165.235 108.493Z" stroke="#263238" stroke-miterlimit="10" stroke-linecap="round" stroke-linejoin="round"/>
<path d="M171.765 108.321C171.765 108.321 178.295 125.515 182.075 127.578C185.856 129.47 195.479 130.157 200.634 129.298C205.789 128.438 209.569 125.515 210.257 124.139C210.944 122.764 212.662 106.602 212.662 106.602L171.765 108.321Z" stroke="#263238" stroke-miterlimit="10" stroke-linecap="round" stroke-linejoin="round"/>
<path d="M171.765 108.322L165.235 108.494" stroke="#263238" stroke-miterlimit="10" stroke-linecap="round" stroke-linejoin="round"/>
<path d="M212.49 106.431L219.02 92.6758" stroke="#263238" stroke-miterlimit="10" stroke-linecap="round" stroke-linejoin="round"/>
<path d="M142.553 118.637C142.553 118.637 150.114 124.827 156.644 118.121" stroke="#263238" stroke-miterlimit="10" stroke-linecap="round" stroke-linejoin="round"/>
<path d="M183.794 118.465C183.794 118.465 193.417 122.592 198.228 117.605" stroke="#263238" stroke-miterlimit="10" stroke-linecap="round" stroke-linejoin="round"/>
<path d="M158.362 107.29C158.362 107.29 146.333 102.648 137.054 105.399" stroke="#263238" stroke-miterlimit="10" stroke-linecap="round" stroke-linejoin="round"/>
<path d="M177.608 105.57C177.608 105.57 192.729 102.647 201.321 104.366" stroke="#263238" stroke-miterlimit="10" stroke-linecap="round" stroke-linejoin="round"/>
<path d="M163.517 136.004C163.517 136.004 163.173 142.538 163.861 143.569C164.548 144.601 167.297 147.524 170.047 147.18C172.796 146.664 178.295 143.053 178.295 143.053" stroke="#263238" stroke-miterlimit="10" stroke-linecap="round" stroke-linejoin="round"/>
<path d="M160.252 151.307C160.252 151.307 169.875 157.841 180.529 150.275" stroke="#263238" stroke-miterlimit="10" stroke-linecap="round" stroke-linejoin="round"/>
</svg>
