<svg width="199" height="60" viewBox="0 0 199 60" fill="none" xmlns="http://www.w3.org/2000/svg">
<g clip-path="url(#clip0_622_165)">
<path d="M88.4989 31.2946L87.7165 29.2826L80.0038 10.5039L72.2911 29.3944L71.3969 31.4064H70.5027C70.6145 31.7417 70.7262 32.1888 70.9498 32.5241V32.6359C72.5147 35.9893 75.9798 38.3366 80.0038 38.3366C83.916 38.3366 87.3811 35.9893 88.946 32.7477C88.946 32.7477 88.946 32.7477 88.946 32.6359C89.1696 32.1888 89.2814 31.8535 89.3931 31.4064L88.4989 31.2946ZM71.5087 31.2946L72.4029 29.2826L79.1096 14.7515L79.7802 31.1828H71.5087V31.2946ZM80.0038 31.2946L80.6745 14.8632L87.3811 29.3944L88.2754 31.4064H80.0038V31.2946Z" fill="#282828"/>
<path d="M18.4142 31.2946L17.6318 29.2826L9.91908 10.5039L2.20641 29.3944L1.31219 31.4064H0.417969C0.529747 31.7417 0.641524 32.1888 0.86508 32.5241V32.6359C2.42997 35.9893 5.89508 38.3366 9.91908 38.3366C13.8313 38.3366 17.2964 35.9893 18.8613 32.7477C18.8613 32.7477 18.8613 32.7477 18.8613 32.6359C19.0849 32.1888 19.1966 31.8535 19.3084 31.4064L18.4142 31.2946ZM1.42397 31.2946L2.31819 29.2826L9.02486 14.7515L9.69553 31.1828H1.42397V31.2946ZM9.91908 31.2946L10.5898 14.8632L17.2964 29.3944L18.1906 31.4064H9.91908V31.2946Z" fill="#282828"/>
<path d="M50.8298 26.2642C50.1591 23.9169 49.3767 21.4578 48.3707 19.2222C48.2589 18.9987 48.1471 18.6633 48.0353 18.4398C47.2529 16.6513 46.2469 15.0864 45.0173 13.6333C42.3347 10.3918 38.7578 8.15622 34.2866 7.59733C30.2626 7.15022 26.1269 7.93267 22.1029 8.60333C17.52 9.38578 12.8253 9.38578 8.01886 9.49756C8.91308 9.83289 9.69553 10.1682 10.5898 10.3918C13.6078 11.286 16.6258 11.9567 19.7555 12.292C21.9911 12.5156 24.1149 12.4038 26.3504 12.4038C32.0511 12.4038 36.634 12.5156 40.3227 17.2102C40.7698 17.8809 41.2169 18.4398 41.664 19.1104C41.9993 19.6693 42.3347 20.34 42.67 21.0107C43.676 23.0227 44.4584 25.2582 45.0173 27.382C45.1291 27.8291 45.3527 28.388 45.4644 28.8351C46.1351 31.6296 46.694 34.424 47.0293 37.2185C47.1411 37.7773 47.1411 38.448 47.1411 39.0069C47.3647 42.5838 47.4764 45.9371 47.0293 49.514C46.694 52.8674 46.0233 56.4442 45.688 59.7976C46.694 58.3445 47.4764 56.7796 48.2589 55.2147C50.718 50.4082 52.0593 45.0429 52.3947 39.6776C52.5064 38.7833 52.3947 37.7773 52.3947 36.8831C52.2829 33.3062 51.724 29.7293 50.8298 26.2642Z" fill="#016A4D"/>
<path d="M42.8936 49.6263C42.5582 46.0494 42.5582 42.696 42.7818 39.1191C42.7818 38.5602 42.8936 37.8896 42.8936 37.3307C43.1171 35.7658 43.3407 34.2009 43.676 32.636C43.4524 31.63 43.2289 30.5122 42.8936 29.5062C42.1111 26.6 41.3287 24.1409 40.3227 22.1289C39.8756 23.4702 39.4284 24.8116 39.0931 26.1529C38.1989 29.7298 37.64 33.3067 37.4164 36.8836C37.4164 37.7778 37.3047 38.7838 37.4164 39.678C37.64 45.0434 39.0931 50.4087 41.5522 55.2151C42.1111 56.3329 42.67 57.4507 43.3407 58.4567C43.5642 58.9038 43.8996 59.3509 44.1231 59.798C44.0113 58.5685 43.7878 57.3389 43.5642 55.9976C43.4524 53.9856 43.1171 51.75 42.8936 49.6263Z" fill="#016A4D"/>
<path d="M67.82 8.60365C63.9078 8.04476 59.772 7.15054 55.748 7.59765C52.1711 8.04476 49.1531 9.49788 46.694 11.7334C47.9236 13.1865 49.0413 14.8632 50.0473 16.7634C53.736 12.4041 58.2071 12.2923 63.6842 12.2923C65.808 12.2923 68.0436 12.2923 70.2791 12.1805C73.4089 11.957 76.4269 11.2863 79.4449 10.2803C80.2273 10.0568 81.1216 9.72143 81.904 9.3861C77.2093 9.3861 72.5147 9.3861 67.82 8.60365Z" fill="#016A4D"/>
<path d="M45.0173 8.49152C47.1163 8.49152 48.8178 6.79 48.8178 4.69107C48.8178 2.59214 47.1163 0.890625 45.0173 0.890625C42.9184 0.890625 41.2169 2.59214 41.2169 4.69107C41.2169 6.79 42.9184 8.49152 45.0173 8.49152Z" fill="#F32A41"/>
<path d="M118.455 39.3417L115.326 35.5413C114.543 35.7648 113.761 35.8766 112.866 35.8766C110.966 35.8766 109.29 35.4295 107.725 34.5353C106.16 33.6411 104.93 32.4115 104.148 30.8466C103.254 29.2817 102.806 27.4933 102.806 25.4813C102.806 23.4693 103.254 21.6808 104.148 20.1159C105.042 18.5511 106.272 17.3215 107.725 16.4273C109.29 15.533 110.966 15.0859 112.866 15.0859C114.767 15.0859 116.443 15.533 118.008 16.4273C119.573 17.3215 120.803 18.5511 121.585 20.1159C122.479 21.6808 122.926 23.4693 122.926 25.4813C122.926 27.3815 122.591 29.0582 121.809 30.5113C121.026 31.9644 120.02 33.1939 118.679 34.0882L123.485 39.3417H118.455ZM107.613 29.0582C108.172 30.0642 108.842 30.8466 109.737 31.4055C110.631 31.9644 111.637 32.1879 112.866 32.1879C114.096 32.1879 115.102 31.9644 115.996 31.4055C116.89 30.8466 117.561 30.0642 118.12 29.0582C118.679 28.0522 118.902 26.9344 118.902 25.5931C118.902 24.2517 118.679 23.1339 118.12 22.1279C117.561 21.1219 116.89 20.3395 115.996 19.7806C115.102 19.2217 114.096 18.9982 112.866 18.9982C111.637 18.9982 110.631 19.2217 109.737 19.7806C108.842 20.3395 108.172 21.1219 107.613 22.1279C107.054 23.1339 106.83 24.2517 106.83 25.5931C106.83 26.8226 107.054 28.0522 107.613 29.0582Z" fill="#282828"/>
<path d="M135.557 20.5634C136.563 21.2341 137.234 22.0165 137.569 23.1343V19.8928H141.593V35.7652H137.569V32.4119C137.122 33.5297 136.452 34.3121 135.557 34.9828C134.551 35.6534 133.434 35.9888 132.092 35.9888C130.751 35.9888 129.521 35.6534 128.515 34.9828C127.398 34.3121 126.615 33.4179 126.056 32.1883C125.497 30.9588 125.162 29.5057 125.162 27.829C125.162 26.1523 125.497 24.6992 126.056 23.4696C126.615 22.2401 127.509 21.3459 128.515 20.6752C129.521 20.0045 130.751 19.6692 132.092 19.6692C133.434 19.6692 134.663 19.8928 135.557 20.5634ZM138.799 14.751V17.4336H127.845V14.751H138.799ZM130.416 24.3639C129.633 25.1463 129.298 26.2641 129.298 27.7172C129.298 29.1703 129.633 30.2881 130.416 31.0705C131.198 31.853 132.204 32.3001 133.434 32.3001C134.663 32.3001 135.669 31.853 136.452 31.0705C137.234 30.2881 137.681 29.1703 137.681 27.7172C137.681 26.2641 137.234 25.1463 136.452 24.3639C135.669 23.5814 134.663 23.1343 133.434 23.1343C132.092 23.1343 131.086 23.5814 130.416 24.3639Z" fill="#282828"/>
<path d="M159.031 21.3461C160.148 22.5756 160.707 24.2523 160.707 26.3761V35.5418H156.683V26.8232C156.683 25.5936 156.348 24.5876 155.677 23.917C155.007 23.2463 154.112 22.911 152.995 22.911C151.877 22.911 150.983 23.2463 150.2 24.0287C149.53 24.8112 149.194 25.8172 149.194 27.2703V35.6536H145.17V19.7812H149.194V22.911C149.641 21.7932 150.312 21.0107 151.318 20.4518C152.324 19.8929 153.442 19.5576 154.671 19.5576C156.46 19.5576 158.025 20.2283 159.031 21.3461Z" fill="#282828"/>
<path d="M179.374 19.781V35.6534H175.35V32.4119C174.903 33.5297 174.233 34.3121 173.227 34.871C172.221 35.4299 171.103 35.7652 169.873 35.7652C168.085 35.7652 166.632 35.2063 165.514 33.9768C164.396 32.7472 163.837 31.0705 163.837 28.9468V19.781H167.861V28.4997C167.861 29.7292 168.196 30.7352 168.867 31.4059C169.538 32.0765 170.432 32.4119 171.55 32.4119C172.668 32.4119 173.674 32.0765 174.344 31.2941C175.015 30.5117 175.35 29.5057 175.35 28.0525V19.6692L179.374 19.781ZM177.139 14.751V17.4336H166.184V14.751H177.139Z" fill="#282828"/>
<path d="M196.812 21.3461C197.929 22.5756 198.488 24.2523 198.488 26.3761V35.5418H194.464V26.8232C194.464 25.5936 194.129 24.5876 193.458 23.917C192.788 23.2463 191.893 22.911 190.776 22.911C189.658 22.911 188.764 23.2463 187.981 24.0287C187.311 24.8112 186.975 25.8172 186.975 27.2703V35.6536H182.951V19.7812H186.975V22.911C187.422 21.7932 188.093 21.0107 189.099 20.4518C190.105 19.8929 191.223 19.5576 192.452 19.5576C194.241 19.5576 195.694 20.2283 196.812 21.3461Z" fill="#282828"/>
</g>
<defs>
<clipPath id="clip0_622_165">
<rect width="198.07" height="59.0187" fill="white" transform="translate(0.417969 0.890625)"/>
</clipPath>
</defs>
</svg>
